<?xml version="1.0" encoding="UTF-8" standalone="no"?>
<!-- Created with Inkscape (http://www.inkscape.org/) -->
<svg
   xmlns:dc="http://purl.org/dc/elements/1.1/"
   xmlns:cc="http://web.resource.org/cc/"
   xmlns:rdf="http://www.w3.org/1999/02/22-rdf-syntax-ns#"
   xmlns:svg="http://www.w3.org/2000/svg"
   xmlns="http://www.w3.org/2000/svg"
   xmlns:xlink="http://www.w3.org/1999/xlink"
   xmlns:sodipodi="http://sodipodi.sourceforge.net/DTD/sodipodi-0.dtd"
   xmlns:inkscape="http://www.inkscape.org/namespaces/inkscape"
   id="svg1923"
   sodipodi:version="0.32"
   inkscape:version="0.44"
   width="1182"
   height="635"
   version="1.0"
   sodipodi:docbase="/Users/amyshore/Desktop"
   sodipodi:docname="usa.svg">
  <metadata
     id="metadata1928">
    <rdf:RDF>
      <cc:Work
         rdf:about="">
        <dc:format>image/svg+xml</dc:format>
        <dc:type
           rdf:resource="http://purl.org/dc/dcmitype/StillImage" />
      </cc:Work>
    </rdf:RDF>
  </metadata>
  <defs
     id="defs1926" />
  <sodipodi:namedview
     inkscape:window-height="752"
     inkscape:window-width="1280"
     inkscape:pageshadow="2"
     inkscape:pageopacity="0.0"
     guidetolerance="10.0"
     gridtolerance="10.0"
     objecttolerance="10.0"
     borderopacity="1.0"
     bordercolor="#666666"
     pagecolor="#ffffff"
     id="base"
     inkscape:zoom="0.59527559"
     inkscape:cx="775.234"
     inkscape:cy="319.32597"
     inkscape:window-x="0"
     inkscape:window-y="22"
     inkscape:current-layer="layer2" />
  <g
     inkscape:groupmode="layer"
     id="layer1"
     inkscape:label="bg"
     style="opacity:;display:none"
     sodipodi:insensitive="true">
    <image
       xlink:href="ElectoralCollege1996-Large.png"
       sodipodi:absref="/Users/amyshore/Desktop/ElectoralCollege1996-Large.png"
       width="1280"
       height="720"
       id="image1930"
       x="-1.3571358"
       y="1.6798911" />
  </g>
  <g
     inkscape:groupmode="layer"
     id="layer2"
     inkscape:label="vector"
     style="opacity:0.9;display:inline">
    <path
       style="fill:white;fill-opacity:1;fill-rule:evenodd;stroke:white;stroke-width:1px;stroke-linecap:butt;stroke-linejoin:miter;stroke-opacity:1"
       d="M 880.38852,100.57832 L 885.00822,89.239024 L 886.68812,64.460585 C 886.68812,64.460585 891.30782,49.341537 893.40772,48.921564 C 895.50762,48.50159 896.76752,52.701326 898.86742,52.701326 C 900.96722,52.701326 903.48712,46.821696 906.00693,46.821696 C 908.52683,46.821696 912.72653,45.981749 913.98643,48.081617 C 915.24633,50.181484 919.02613,74.119977 922.38588,76.219844 C 925.74568,78.319712 928.68548,78.319712 929.52538,79.999606 C 930.36538,81.679504 927.84548,82.519444 929.94538,84.199344 C 932.04528,85.879234 938.34488,85.459264 939.60478,89.239024 C 940.86468,93.018784 940.02478,93.438764 937.92488,95.958607 C 935.82498,98.478447 933.30518,98.478447 932.04528,100.15834 C 930.78538,101.83824 932.04528,103.09816 928.26548,105.61799 C 924.48578,108.13784 922.80588,108.97778 921.12598,108.97778 C 919.44608,108.97778 919.44608,106.87792 917.34623,108.55781 C 915.24633,110.2377 916.08633,112.33757 914.82643,115.27739 C 913.56643,118.2172 911.46663,121.15702 908.94673,122.83691 C 906.42693,124.5168 904.74702,121.57699 903.06712,124.5168 C 901.38722,127.45662 900.96722,131.65635 900.54732,134.1762 C 900.12732,136.69604 896.76752,140.89577 897.60742,144.25556 C 898.44742,147.61535 900.12732,157.69471 898.86742,159.37461 C 897.60742,161.0545 903.90702,166.93413 907.68683,166.93413 C 911.46663,166.93413 910.62663,162.31442 913.56643,162.31442 C 916.50633,162.31442 918.18623,168.19405 915.24633,169.87395 C 912.30653,171.55384 908.52683,171.97381 905.58692,172.81376 C 902.64712,173.65371 903.06712,175.75358 900.96722,175.75358 C 898.86742,175.75358 894.66762,174.49366 892.56782,181.21323 C 890.46792,187.93281 882.06842,186.25292 876.60882,189.19273 C 871.14912,192.13254 863.16962,194.65239 865.26952,197.5922 C 867.36942,200.53202 887.10812,185.83294 887.94812,188.35278 C 888.78802,190.87262 879.54862,199.2721 876.18882,200.11204 C 872.82902,200.95199 864.84952,203.05186 862.32972,205.5717 C 859.80982,208.09154 861.90972,208.09154 863.16962,213.13122 C 864.42952,218.1709 862.32972,228.67024 861.06972,231.19008 C 859.80982,233.70993 855.61012,245.04921 853.93022,245.04921 C 852.25032,245.04921 852.25032,240.4295 851.83032,239.58956 C 851.41042,238.74961 845.95072,233.70993 844.69082,235.80979 C 843.43092,237.90966 847.21062,245.88916 847.21062,245.88916 C 847.21062,245.88916 852.25032,249.24895 853.09032,251.34881 C 853.93022,253.44868 851.41042,266.04789 851.41042,266.04789 L 850.57042,275.70728 C 850.57042,275.70728 847.63062,286.20662 845.95072,286.20662 C 844.27082,286.20662 843.85082,271.50754 844.69082,268.56773 C 845.53072,265.62792 843.43092,262.6881 840.91102,263.10807 C 838.39122,263.52805 834.19142,255.12858 834.19142,251.34881 C 834.19142,247.56905 835.87132,238.32963 835.87132,238.32963 C 835.87132,238.32963 829.15182,242.1094 828.73182,247.56905 C 828.31182,253.02871 831.67162,265.20794 831.67162,265.20794 L 825.79202,265.62792 C 825.79202,265.62792 831.67162,268.56773 833.77152,270.6676 C 835.87132,272.76747 836.29132,280.74696 838.81122,284.9467 C 841.33102,289.14643 844.27082,294.60609 847.63062,295.44604 C 850.99042,296.28598 861.48972,313.92487 861.06972,317.28466 C 860.64982,320.64445 860.22982,324.00424 848.89052,333.24366 C 837.55122,342.48307 832.93152,344.16297 830.83172,347.94273 C 828.73182,351.72249 828.73182,355.92223 825.79202,359.28202 C 822.85222,362.6418 812.77282,363.90172 808.99302,371.88122 C 805.21332,379.86072 806.47322,378.6008 803.53342,381.54061 C 800.59362,384.48043 779.59492,405.05913 777.07502,424.79789 C 774.55522,444.53665 785.47452,461.33559 786.31452,464.2754 C 787.15442,467.21522 794.71392,471.83493 796.81382,476.45464 C 798.91372,481.07434 804.37332,497.87329 810.25292,506.69273 C 816.13262,515.51217 818.23242,544.07038 812.77282,547.43016 C 807.31312,550.78995 801.01352,551.20993 800.17362,549.11006 C 799.33362,547.01019 797.23382,543.6504 794.71392,540.71059 C 792.19412,537.77077 789.25432,536.51085 787.15442,534.83096 C 785.05452,533.15106 787.99442,533.15106 785.89452,530.21125 C 783.79462,527.27143 781.69472,526.01151 780.01492,524.75159 C 778.33502,523.49167 779.59492,523.0717 779.17492,521.3918 C 778.75492,519.71191 773.71532,519.29194 771.19542,517.61204 C 768.67562,515.93215 767.41562,515.51217 767.41562,511.31244 C 767.41562,507.1127 768.25562,501.23307 768.25562,501.23307 C 768.25562,501.23307 764.47582,500.8131 762.79592,498.29326 C 761.11602,495.77342 764.89582,481.49432 759.85612,476.87461 C 754.81642,472.2549 749.77682,468.89511 746.83692,467.21522 C 743.89712,465.53532 737.59752,455.03598 732.13792,455.45596 C 726.67822,455.87593 717.01882,466.79524 711.97912,466.79524 C 706.93952,466.79524 704.41962,462.17553 702.73972,460.07567 C 701.05982,457.9758 701.05982,461.75556 696.44012,458.81575 C 691.82042,455.87593 690.98052,454.19604 687.20072,454.19604 C 683.42092,454.19604 678.38132,458.81575 675.02152,458.81575 C 671.66172,458.81575 667.04202,457.9758 667.04202,457.9758 C 667.04202,457.9758 668.72192,460.49564 665.36212,460.07567 C 662.00232,459.65569 658.22252,455.03598 658.22252,455.03598 C 658.22252,455.03598 656.54262,459.23572 654.44282,459.23572 C 652.34292,459.23572 635.96392,460.91561 635.96392,460.91561 L 626.30452,468.89511 L 634.70402,470.99498 C 634.70402,470.99498 627.98442,473.09485 630.08432,476.45464 C 632.18422,479.81442 643.52352,481.91429 641.00362,484.01416 C 638.48382,486.11403 638.06382,488.63387 635.96392,487.79392 C 633.86412,486.95397 625.88462,479.81442 624.20472,481.91429 C 622.52482,484.01416 618.74502,486.11403 614.54532,486.11403 C 610.34552,486.11403 609.08562,488.63387 606.14582,487.37395 C 603.20602,486.11403 601.10612,481.49432 601.10612,481.49432 L 595.64652,476.45464 L 586.82702,475.19471 C 586.82702,475.19471 585.14712,478.5545 582.62732,478.5545 C 580.10742,478.5545 574.22782,478.97448 570.86802,478.13453 C 567.50822,477.29458 559.52872,473.09485 554.48912,474.77474 C 549.44942,476.45464 537.69012,481.91429 536.43022,483.59419 C 535.17032,485.27408 528.45072,495.35344 525.51092,497.03334 C 522.57112,498.71323 501.15242,507.95265 495.69282,516.7721 C 490.23312,525.59154 486.87332,526.43149 487.29332,530.63122 C 487.71332,534.83096 493.17292,556.66958 489.81312,557.50953 C 486.45332,558.34948 474.27412,554.14974 469.65442,553.30979 C 465.03472,552.46985 452.43552,543.23043 450.75562,539.87064 C 449.07572,536.51085 448.23582,523.49167 446.55592,520.97183 C 444.87602,518.45199 432.27682,509.63255 431.43682,505.85278 C 430.59692,502.07302 427.23712,489.89379 425.13722,487.79392 C 423.03732,485.69405 415.47782,474.77474 410.43812,473.51482 C 405.39852,472.2549 392.37932,470.99498 389.85942,475.19471 C 387.33962,479.39445 386.07972,486.11403 381.87992,486.95397 C 377.68022,487.79392 368.86082,481.49432 365.92092,479.81442 C 362.98112,478.13453 349.54202,460.07567 348.70202,449.9963 C 347.86212,439.91694 324.76352,425.63784 324.76352,425.63784 L 324.76352,424.37792 L 295.36542,421.4381 L 294.10552,428.57765 L 240.34882,421.85807 L 182.81252,386.5803 L 182.39252,383.22051 L 143.75492,378.18083 L 140.81512,373.98109 L 141.23512,362.22183 C 141.23512,362.22183 132.41562,350.0426 129.47582,348.78268 C 126.53602,347.52276 125.69612,347.52276 125.69612,347.52276 L 125.69612,343.32302 C 125.69612,343.32302 118.97652,340.38321 116.87662,339.54326 C 114.77682,338.70331 108.05722,329.88387 108.05722,329.88387 L 93.778119,324.00424 L 94.198019,310.98506 L 82.438819,278.6471 L 85.378619,272.76747 L 84.958619,267.72778 L 78.659019,261.00821 L 80.338919,249.24895 L 85.378619,252.60874 C 85.378619,252.60874 82.858819,247.98903 84.538719,246.30913 C 86.218619,244.62924 87.898419,240.84948 87.898419,240.84948 C 87.898419,240.84948 82.858819,242.1094 79.918919,242.94934 C 76.979119,243.78929 74.459319,240.84948 74.459319,238.32963 C 74.459319,235.80979 67.739719,221.11072 67.739719,221.11072 C 67.739719,221.11072 68.159719,201.79194 68.579719,200.11204 C 68.999619,198.43215 63.120019,185.83294 64.799919,183.73307 C 66.479819,181.63321 76.979119,166.93413 76.979119,166.93413 L 76.979119,146.35543 C 76.979119,146.35543 78.659019,140.4758 79.079019,138.7959 C 79.499019,137.11601 78.239119,134.1762 78.239119,134.1762 C 78.239119,134.1762 92.098219,113.17752 97.557819,100.99829 C 103.01752,88.819054 109.31712,64.880559 109.31712,45.141802 C 109.31712,25.403044 109.73712,22.463229 112.25692,22.463229 C 114.77682,22.463229 118.55652,28.342859 121.49632,30.442728 C 124.43612,32.542596 131.15572,31.282675 133.67562,35.062437 C 136.19542,38.842199 134.09552,50.181484 132.41562,51.861379 C 130.73582,53.541273 126.11602,52.701326 126.53602,54.801193 C 126.95602,56.901061 133.67562,58.160982 136.19542,55.221167 C 138.71522,52.281352 140.39512,44.721828 140.81512,42.621961 C 141.23512,40.522093 139.55522,30.862701 139.55522,30.862701 C 139.55522,30.862701 143.75492,30.862701 144.17492,28.342859 C 144.59492,25.823018 139.97522,22.463229 139.97522,22.463229 L 139.97522,18.683468 L 218.93022,38.422225 L 230.26952,40.522093 C 230.26952,40.522093 294.10552,53.121299 317.62402,56.061114 C 341.14252,59.000929 381.04002,64.880559 400.35882,66.560453 C 419.67762,68.240347 485.61342,71.180162 495.69282,71.180162 C 505.77212,71.180162 522.15112,71.180162 522.15112,71.180162 L 523.41102,62.780691 L 527.19082,62.360717 L 530.97052,73.280029 L 537.27012,73.700003 L 540.21002,77.479765 C 540.21002,77.479765 544.82972,78.739686 550.70932,78.319712 C 556.58892,77.899738 557.00892,77.899738 557.00892,77.899738 C 557.00892,77.899738 559.10882,81.259527 561.62862,82.519444 C 564.14852,83.779364 565.82832,83.359394 567.92822,83.779364 C 570.02812,84.199344 570.02812,86.299204 572.96792,87.139154 C 575.90772,87.979104 580.94742,86.299204 584.30722,85.459264 C 587.66702,84.619314 595.64652,86.299204 599.42622,87.559134 C 603.20602,88.819054 590.60682,92.598814 587.66702,95.958607 C 584.72722,99.318387 567.50822,114.01747 570.02812,116.53731 C 572.54792,119.05715 583.88722,112.75754 585.98712,113.17752 C 588.08692,113.59749 586.82702,117.37725 586.82702,117.37725 L 595.64652,117.79723 C 595.64652,117.79723 601.94612,112.75754 605.30592,111.9176 C 608.66562,111.07765 611.18552,111.07765 611.18552,111.07765 L 624.62462,96.798547 L 628.40442,96.798547 C 628.40442,96.798547 623.36472,100.57832 623.36472,104.35807 C 623.36472,108.13784 622.94472,108.13784 622.94472,108.13784 C 622.94472,108.13784 629.24442,108.13784 632.18422,109.81773 C 635.12402,111.49762 639.74372,116.11733 639.74372,116.11733 L 652.34292,116.95728 C 652.34292,116.95728 651.08302,113.59749 655.28272,112.33757 C 659.48242,111.07765 670.82172,108.55781 670.82172,108.55781 L 674.18152,113.17752 L 681.32112,113.17752 L 687.62072,118.2172 L 687.62072,119.89709 L 682.58102,120.31707 L 680.90112,124.09683 C 680.90112,124.09683 675.02152,122.83691 672.08172,122.41694 C 669.14182,121.99696 662.84222,122.83691 659.48242,124.93678 C 656.12272,127.03665 655.70272,131.23638 655.70272,131.23638 C 655.70272,131.23638 646.04332,127.87659 643.52352,131.23638 C 641.00362,134.59617 642.68352,138.37593 640.58362,141.73572 C 638.48382,145.09551 633.86412,148.03532 633.44412,150.97514 C 633.02412,153.91495 631.76422,158.95463 634.28402,158.11469 C 636.80392,157.27474 640.16372,153.91495 641.00362,150.97514 C 641.84362,148.03532 643.94342,142.99564 645.62332,143.83559 C 647.30322,144.67553 645.62332,152.23506 643.94342,155.17487 C 642.26352,158.11469 638.90372,166.51416 638.48382,169.034 C 638.06382,171.55384 639.74372,177.85344 638.48382,179.53334 C 637.22382,181.21323 635.12402,181.21323 635.54402,186.67289 C 635.96392,192.13254 639.32372,192.55252 639.32372,197.17223 C 639.32372,201.79194 638.48382,203.47183 640.16372,207.67157 C 641.84362,211.8713 643.52352,217.33096 646.04332,218.59088 C 648.56312,219.8508 651.08302,221.11072 654.44282,218.59088 C 657.80262,216.07104 662.00232,209.35146 662.84222,205.15172 C 663.68222,200.95199 665.36212,194.65239 663.26222,189.6127 C 661.16232,184.57302 657.80262,180.79326 658.22252,175.3336 C 658.64252,169.87395 658.22252,162.7344 659.90242,160.21456 C 661.58232,157.69471 659.06252,154.33493 660.32242,151.81508 C 661.58232,149.29524 671.66172,147.61535 671.66172,147.61535 C 671.66172,147.61535 673.76152,140.05583 675.44142,137.95596 C 677.12132,135.85609 672.50162,129.97646 675.86142,129.55649 C 679.22122,129.13651 688.04062,130.39643 690.98052,131.23638 C 693.92032,132.07633 696.86012,129.13651 698.54002,132.91627 C 700.21992,136.69604 700.63992,139.63585 701.47982,142.15569 C 702.31972,144.67553 704.41962,149.29524 703.57972,152.65503 C 702.73972,156.01482 698.54002,164.41429 698.54002,164.41429 C 698.54002,164.41429 696.02012,169.87395 698.12002,169.87395 C 700.21992,169.87395 704.83962,162.31442 708.19942,162.7344 C 711.55922,163.15437 714.91902,167.77408 716.17892,171.55384 C 717.43882,175.3336 719.95862,180.79326 720.37862,183.3131 C 720.79862,185.83294 720.37862,185.83294 717.43882,189.6127 C 714.49902,193.39247 712.81912,199.2721 712.81912,202.21191 C 712.81912,205.15172 703.57972,211.03135 706.93952,211.45133 C 710.29922,211.8713 715.33892,216.07104 718.27872,216.07104 C 721.21862,216.07104 726.67822,213.5512 730.03802,212.29127 C 733.39782,211.03135 736.33762,210.61138 738.85742,209.77143 C 741.37732,208.93149 742.21722,205.15172 745.15702,203.8918 C 748.09692,202.63188 751.03672,203.47183 753.97652,201.79194 C 756.91632,200.11204 755.23642,198.01217 758.59622,195.07236 C 761.95602,192.13254 770.77542,187.93281 772.87532,183.3131 C 774.97522,178.69339 775.39512,174.91363 773.71532,174.91363 C 772.03542,174.91363 771.19542,171.97381 772.45532,169.45397 C 773.71532,166.93413 777.91502,163.99432 780.85482,163.57434 C 783.79462,163.15437 803.11342,163.99432 806.47322,160.63453 C 809.83302,157.27474 813.19282,150.13519 813.19282,146.35543 C 813.19282,142.57567 811.51292,135.85609 816.97252,130.39643 C 822.43222,124.93678 823.69212,121.57699 823.69212,121.57699 L 854.77012,112.75754 C 854.77012,112.75754 867.78932,110.65768 870.72912,108.55781 C 873.66902,106.45794 873.66902,100.15834 873.66902,100.15834 L 880.38852,100.57832 z "
       id="path1932" />
    <path
       style="fill:white;fill-opacity:1;fill-rule:evenodd;stroke:black;stroke-width:1px;stroke-linecap:butt;stroke-linejoin:miter;stroke-opacity:1"
       d="M 668.30192,458.81575 L 664.94212,445.37659 L 710.71922,438.65702 L 716.17892,446.21654 L 759.43612,443.27672 C 759.43612,443.27672 762.79592,446.21654 764.47582,446.21654 C 766.15572,446.21654 766.15572,434.87725 766.15572,434.87725 L 776.65512,436.55715 C 776.65512,436.55715 779.59492,452.93612 782.53472,457.55583 C 785.47452,462.17553 797.65372,476.03466 796.81382,474.35477 C 795.97382,472.67487 801.43352,490.73374 803.53342,494.93347 C 805.63322,499.13321 812.77282,509.63255 813.19282,514.67223 C 813.61272,519.71191 818.65242,536.51085 815.71262,541.55053 C 812.77282,546.59022 804.37332,554.56971 801.01352,549.95001 C 797.65372,545.3303 790.51422,534.83096 787.57442,534.41098 C 784.63462,533.99101 787.15442,533.57104 786.73442,530.63122 C 786.31452,527.69141 780.43482,524.75159 780.43482,524.75159 C 780.43482,524.75159 780.85482,523.49167 780.01492,521.81178 C 779.17492,520.13188 769.51552,518.45199 768.25562,515.0922 C 766.99572,511.73241 767.41562,501.23307 767.41562,501.23307 C 767.41562,501.23307 761.11602,499.55318 761.11602,496.61337 C 761.11602,493.67355 767.41562,483.17421 761.95602,477.29458 C 756.49632,471.41495 749.77682,472.67487 745.57702,466.79524 C 741.37732,460.91561 738.01752,455.03598 733.39782,455.45596 C 728.77812,455.87593 717.85882,466.79524 711.97912,466.79524 C 706.09952,466.79524 706.51952,463.43546 703.57972,461.33559 C 700.63992,459.23572 694.34032,454.61601 689.72052,454.19604 C 685.10082,453.77606 683.42092,457.9758 678.38132,458.39577 C 673.34162,458.81575 668.30192,460.07567 668.30192,458.81575 z "
       id="FL" />
    <path
       style="fill:white;fill-opacity:1;fill-rule:evenodd;stroke:black;stroke-width:1px;stroke-linecap:butt;stroke-linejoin:miter;stroke-opacity:1"
       d="M 776.65512,436.55715 C 776.65512,436.55715 775.39512,426.47778 777.07502,423.11799 C 778.75492,419.75821 783.79462,407.57897 783.79462,407.57897 C 783.79462,407.57897 772.03542,394.97977 769.09552,391.20001 C 766.15572,387.42024 755.23642,379.86072 748.93682,371.46125 C 742.63722,363.06178 748.09692,364.3217 739.69742,362.22183 C 731.29792,360.12196 730.03802,360.54194 731.29792,358.86204 C 732.55782,357.18215 732.97782,353.82236 732.97782,353.82236 L 693.92032,357.18215 C 693.92032,357.18215 695.18022,377.76085 697.28012,382.80053 C 699.37992,387.84022 710.71922,411.77871 710.71922,414.29855 C 710.71922,416.81839 706.93952,418.49829 707.77942,424.37792 C 708.61942,430.25755 710.29922,437.3971 710.29922,437.3971 L 715.33892,446.21654 L 759.43612,443.27672 C 759.43612,443.27672 762.79592,446.21654 764.47582,446.21654 C 766.15572,446.21654 766.57572,435.7172 766.57572,435.7172 L 776.65512,436.55715 z "
       id="GA" />
    <path
       style="fill:white;fill-opacity:1;fill-rule:evenodd;stroke:black;stroke-width:1px;stroke-linecap:butt;stroke-linejoin:miter;stroke-opacity:1"
       d="M 693.50032,357.18215 C 693.50032,357.18215 696.44012,380.28069 700.21992,388.68016 C 703.99962,397.07963 713.65902,412.19868 711.55922,415.1385 C 709.45932,418.07831 707.77942,418.49829 708.19942,422.69802 C 708.61942,426.89776 710.29922,438.23704 710.29922,438.23704 L 665.78202,445.79657 L 668.30192,458.81575 C 668.30192,458.81575 664.52212,460.91561 662.84222,459.23572 C 661.16232,457.55583 659.06252,455.03598 659.06252,455.03598 C 659.06252,455.03598 657.80262,459.65569 655.70272,459.65569 C 653.60282,459.65569 651.50292,458.81575 651.50292,458.81575 C 651.50292,458.81575 648.14322,431.09749 648.14322,427.7377 C 648.14322,424.37792 647.30322,362.22183 647.30322,362.22183 L 693.50032,357.18215 z "
       id="AL" />
    <path
       style="fill:white;fill-opacity:1;fill-rule:evenodd;stroke:black;stroke-width:1px;stroke-linecap:butt;stroke-linejoin:miter;stroke-opacity:1"
       d="M 613.70532,363.48175 L 647.72322,361.80186 C 647.72322,361.80186 647.72322,423.11799 648.14322,428.99762 C 648.56312,434.87725 651.92292,459.65569 651.92292,459.65569 L 637.22382,460.07567 L 631.34422,465.11535 L 628.40442,463.85543 L 628.40442,459.23572 C 628.40442,459.23572 625.88462,459.23572 624.62462,456.2959 C 623.36472,453.35609 625.04462,449.57633 625.04462,449.57633 L 601.94612,447.47646 C 601.94612,447.47646 595.22652,450.41628 594.38652,448.31641 C 593.54662,446.21654 595.64652,438.65702 596.48642,435.7172 C 597.32642,432.77739 602.36602,427.7377 603.20602,424.37792 C 604.04592,421.01813 601.52612,420.59815 601.52612,418.91826 C 601.52612,417.23837 604.04592,413.4586 602.36602,410.93876 C 600.68612,408.41892 599.42622,408.83889 599.42622,405.47911 C 599.42622,402.11932 599.00632,400.01945 598.16632,396.65966 C 597.32642,393.29987 613.28542,363.90172 613.70532,363.48175 z "
       id="MS" />
    <path
       style="fill:white;fill-opacity:1;fill-rule:evenodd;stroke:black;stroke-width:1px;stroke-linecap:butt;stroke-linejoin:miter;stroke-opacity:1"
       d="M 783.79462,407.159 C 783.79462,407.159 769.93552,392.03995 768.25562,390.36006 C 766.57572,388.68016 760.69612,382.38056 757.33632,380.28069 C 753.97652,378.18083 745.15702,365.16165 745.15702,365.16165 C 745.15702,365.16165 736.75762,362.6418 733.81782,359.28202 C 730.87792,355.92223 732.55782,352.14247 734.65772,350.88254 C 736.75762,349.62262 748.51682,344.58294 750.19672,344.58294 C 751.87662,344.58294 769.51552,342.48307 769.51552,342.48307 L 774.97522,348.78268 L 793.45402,346.26284 C 793.45402,346.26284 802.27352,355.50225 805.21332,358.0221 C 808.15312,360.54194 816.97252,364.3217 816.97252,364.3217 C 816.97252,364.3217 810.67292,366.00159 809.83302,369.36138 C 808.99302,372.72117 808.99302,377.76085 805.63322,380.70067 C 802.27352,383.64048 795.97382,389.52011 793.87402,392.03995 C 791.77412,394.55979 784.21462,407.57897 783.79462,407.159 z "
       id="SC" />
    <path
       style="fill:white;fill-opacity:1;fill-rule:evenodd;stroke:black;stroke-width:1px;stroke-linecap:butt;stroke-linejoin:miter;stroke-opacity:1"
       d="M 793.03402,346.26284 L 775.39512,348.78268 L 769.51552,342.48307 C 769.51552,342.48307 753.97652,342.48307 749.35682,345.00292 C 744.73712,347.52276 743.05722,347.94273 740.11742,348.78268 C 737.17762,349.62262 733.81782,351.72249 733.81782,351.72249 L 714.49902,355.08228 C 714.49902,355.08228 712.39912,349.20265 717.85882,344.58294 C 723.31842,339.96323 730.45802,336.18347 732.13792,334.50358 C 733.81782,332.82368 733.81782,329.04392 737.59752,326.94405 C 741.37732,324.84419 744.73712,328.62395 747.25692,324.84419 C 749.77682,321.06442 753.55652,314.76482 753.55652,314.76482 C 753.55652,314.76482 772.45532,312.66495 780.43482,311.40503 C 788.41432,310.14511 846.37072,297.96588 846.37072,297.96588 L 848.05062,295.02606 C 848.05062,295.02606 857.71002,308.04524 858.96992,310.98506 C 860.22982,313.92487 862.74962,322.74432 856.87002,326.94405 C 850.99042,331.14379 843.01092,340.38321 840.49102,340.80318 C 837.97122,341.22315 832.09162,344.58294 831.25162,347.52276 C 830.41172,350.46257 828.73182,358.86204 826.21192,360.12196 C 823.69212,361.38188 818.23242,363.90172 818.23242,363.90172 C 818.23242,363.90172 808.57312,363.48175 805.63322,359.28202 C 802.69342,355.08228 793.87402,347.10278 793.03402,346.26284 z "
       id="NC" />
    <path
       style="fill:white;fill-opacity:1;fill-rule:evenodd;stroke:black;stroke-width:1px;stroke-linecap:butt;stroke-linejoin:miter;stroke-opacity:1"
       d="M 847.39822,296.33642 C 847.69522,293.66373 845.61642,294.85159 843.53772,292.47586 C 841.45892,290.10013 839.38012,286.23957 838.19232,283.86384 C 837.00442,281.48811 837.30142,275.25182 834.92572,271.9852 C 832.54992,268.71857 823.34402,267.23374 821.26522,263.96711 C 819.18642,260.70048 821.85912,255.94903 819.48342,252.97936 C 817.10772,250.0097 812.65322,247.04004 810.27752,246.74307 C 807.90172,246.44611 809.08962,248.52487 806.41692,249.1188 C 803.74422,249.71274 797.21102,250.0097 797.21102,250.0097 C 797.21102,250.0097 794.83522,256.83992 793.94432,258.02779 C 793.05342,259.21565 791.56862,259.80959 789.78682,262.18531 C 788.00502,264.56104 790.97472,265.45194 788.30202,267.5307 C 785.62932,269.60947 780.87782,270.79733 780.87782,270.79733 C 780.87782,270.79733 776.12642,276.73666 774.64152,280.59722 C 773.15672,284.45777 771.07792,286.8335 770.78102,288.6153 C 770.48402,290.3971 773.75062,290.69406 770.48402,292.17889 C 767.21742,293.66373 761.27802,298.71215 758.01142,299.00912 C 754.74482,299.30608 748.80552,300.49395 747.61762,300.19698 C 746.42972,299.90001 745.83582,297.52429 745.83582,297.52429 C 745.83582,297.52429 743.16312,297.22732 741.08442,299.60305 C 739.00562,301.97878 737.81772,304.65147 736.62992,304.94844 C 735.44202,305.2454 733.06632,312.37259 730.69052,312.96652 C 728.31482,313.56046 722.96942,318.60888 722.96942,318.60888 C 722.96942,318.60888 737.52082,315.63922 739.59952,315.63922 C 741.67832,315.63922 755.04182,314.45136 760.09022,313.85742 C 765.13862,313.26349 774.34462,312.07563 779.39302,311.48169 C 784.44142,310.88776 812.05932,305.2454 814.13802,304.94844 C 816.21682,304.65147 847.99222,296.33642 847.39822,296.33642 z "
       id="VA" />
    <path
       style="fill:white;fill-opacity:1;fill-rule:evenodd;stroke:black;stroke-width:1px;stroke-linecap:butt;stroke-linejoin:miter;stroke-opacity:1"
       d="M 815.32592,248.22791 L 818.29552,242.58555 L 824.82882,246.74307 L 820.37432,252.38543 L 815.32592,248.22791 z "
       id="VA_NORTH" />
    <path
       style="fill:white;fill-opacity:1;fill-rule:evenodd;stroke:black;stroke-width:1px;stroke-linecap:butt;stroke-linejoin:miter;stroke-opacity:1"
       d="M 831.65902,265.74891 C 831.65902,265.74891 826.31362,243.17948 829.87722,241.39768 C 833.44082,239.61589 835.51962,238.72499 835.51962,238.72499 C 835.51962,238.72499 832.84692,248.52487 834.33172,253.27633 C 835.81652,258.02779 835.81652,260.70048 838.19232,261.88835 C 840.56802,263.07621 845.02252,266.34284 845.02252,266.34284 C 845.02252,266.34284 843.83462,285.05171 845.91342,285.05171 C 847.99222,285.05171 851.55582,267.82767 851.55582,266.34284 C 851.55582,264.85801 853.33762,257.13689 853.33762,257.13689 L 842.34982,257.43386 L 836.11352,231.89477 L 777.61122,242.58555 L 781.47172,250.9006 C 781.47172,250.9006 789.78682,241.99162 796.61702,241.99162 C 803.44722,241.99162 804.04122,242.28858 805.82302,243.47645 C 807.60482,244.66431 809.08962,247.04004 809.08962,247.04004 C 809.08962,247.04004 815.62292,250.30667 815.32592,249.41577 C 815.02892,248.52487 818.29552,243.77341 818.29552,243.77341 L 825.42272,247.04004 L 820.37432,252.38543 C 820.37432,252.38543 820.07732,257.13689 820.07732,258.91869 C 820.07732,260.70048 819.18642,263.07621 821.26522,264.26408 C 823.34402,265.45194 832.54992,266.34284 831.65902,265.74891 z "
       id="MD" />
    <path
       style="fill:white;fill-opacity:1;fill-rule:evenodd;stroke:black;stroke-width:1px;stroke-linecap:butt;stroke-linejoin:miter;stroke-opacity:1"
       d="M 836.70742,230.7069 L 842.05282,258.32475 L 852.74362,257.13689 C 852.74362,257.13689 855.11932,252.08847 852.74362,250.0097 C 850.36792,247.93094 848.28912,248.22791 847.39822,245.25824 C 846.50732,242.28858 844.42862,236.05229 843.53772,234.2705 C 842.64682,232.4887 842.05282,227.44028 842.05282,227.44028 L 836.70742,230.7069 z "
       id="DE" />
    <path
       style="fill:white;fill-opacity:1;fill-rule:evenodd;stroke:black;stroke-width:1px;stroke-linecap:butt;stroke-linejoin:miter;stroke-opacity:1"
       d="M 843.83462,193.28917 L 860.46472,201.30726 L 859.87082,205.76175 C 859.87082,205.76175 859.57382,207.54354 859.27692,209.32534 C 858.97992,211.10714 862.54352,211.99804 862.84052,213.77983 C 863.13742,215.56163 861.65262,216.15556 861.65262,218.23433 C 861.65262,220.31309 863.13742,226.25241 862.24652,228.03421 C 861.35562,229.816 856.30722,235.1614 856.30722,236.64623 C 856.30722,238.13106 856.90112,239.91285 856.90112,239.91285 C 856.90112,239.91285 854.82242,246.14914 853.63452,244.96128 C 852.44672,243.77341 853.63452,241.39768 852.44672,240.20982 C 851.25882,239.02196 848.58612,236.34926 847.39822,236.34926 C 846.21042,236.34926 845.31952,236.94319 845.31952,236.94319 L 841.75592,228.62814 C 841.75592,228.62814 845.31952,225.95544 845.91342,222.68882 C 846.50732,219.42219 848.58612,218.53129 846.80432,216.45253 C 845.02252,214.37377 842.94372,214.9677 842.64682,211.70107 C 842.34982,208.43444 841.45892,201.01029 841.75592,198.93153 C 842.05282,196.85276 843.83462,192.69524 843.83462,193.28917 z "
       id="NJ" />
    <path
       style="fill:white;fill-opacity:1;fill-rule:evenodd;stroke:black;stroke-width:1px;stroke-linecap:butt;stroke-linejoin:miter;stroke-opacity:1"
       d="M 844.72552,193.58614 L 861.05872,201.60422 L 859.87082,206.65265 C 859.87082,206.65265 863.73142,203.68298 867.29502,202.49512 C 870.85862,201.30726 876.20392,200.71332 877.98572,199.52546 C 879.76752,198.33759 887.78562,193.28917 887.78562,191.80434 C 887.78562,190.31951 888.37962,188.53771 888.37962,188.53771 C 888.37962,188.53771 877.09482,191.80434 875.61002,193.28917 C 874.12522,194.774 867.88892,201.01029 866.10712,199.52546 C 864.32532,198.04063 860.76172,196.85276 860.76172,195.36793 C 860.76172,193.8831 859.57382,176.06513 859.87082,172.20457 C 860.16782,168.34401 860.16782,155.57447 859.87082,154.3866 C 859.57382,153.19874 856.30722,144.58672 855.71332,143.39886 C 855.11932,142.21099 852.14972,139.24133 851.55582,137.45953 C 850.96182,135.67774 849.47702,124.98696 849.18002,122.0173 C 848.88312,119.04763 847.10132,116.07797 847.10132,116.07797 L 823.64092,121.1264 C 823.64092,121.1264 822.75002,124.39302 819.78042,127.36269 C 816.81072,130.33235 814.13802,133.30201 813.54412,138.6474 C 812.95022,143.99279 814.43502,148.74425 811.16842,154.3866 C 807.90172,160.02896 810.27752,162.10772 805.22902,162.10772 C 800.18062,162.10772 788.30202,163.59256 786.81712,163.59256 C 785.33232,163.59256 782.06572,162.10772 778.79912,163.88952 C 775.53242,165.67132 770.78102,168.34401 771.67192,170.71974 C 772.56282,173.09547 775.82942,175.76817 775.82942,175.76817 L 771.96882,184.97412 C 771.96882,184.97412 764.84162,188.83468 765.13862,191.21041 C 765.43562,193.58614 770.78102,194.18007 773.15672,193.8831 C 775.53242,193.58614 824.53182,184.38019 824.53182,184.38019 C 824.53182,184.38019 831.65902,180.51963 834.62872,182.89535 C 837.59832,185.27108 838.78622,187.64681 840.27102,189.13164 C 841.75592,190.61647 845.61642,193.58614 844.72552,193.58614 z "
       id="NY" />
    <path
       style="fill:white;fill-opacity:1;fill-rule:evenodd;stroke:black;stroke-width:1px;stroke-linecap:butt;stroke-linejoin:miter;stroke-opacity:1"
       d="M 860.46472,173.6894 C 860.46472,173.6894 871.74952,172.20457 874.12522,171.31367 C 876.50092,170.42278 886.89472,169.23491 888.08262,170.12581 C 889.27052,171.01671 890.75532,173.98637 890.75532,176.3621 C 890.75532,178.73783 891.34922,180.81659 888.08262,183.19232 C 884.81602,185.56805 874.71912,189.13164 872.34342,190.61647 C 869.96772,192.1013 865.21622,194.18007 865.21622,195.36793 C 865.21622,196.5558 865.21622,196.85276 865.21622,196.85276 L 861.35562,195.96186 C 861.35562,195.96186 859.87082,190.31951 859.87082,186.45895 C 859.87082,182.59839 860.76172,174.28334 860.46472,173.6894 z "
       id="CT" />
    <path
       style="fill:white;fill-opacity:1;fill-rule:evenodd;stroke:black;stroke-width:1px;stroke-linecap:butt;stroke-linejoin:miter;stroke-opacity:1"
       d="M 893.13102,168.64098 L 895.80372,172.20457 L 898.47642,175.17423 C 898.47642,175.17423 896.69462,175.4712 895.50672,176.95603 C 894.31892,178.44086 894.02192,182.30142 892.53712,182.00446 C 891.05232,181.70749 891.05232,179.03479 891.05232,176.3621 C 891.05232,173.6894 889.27052,171.01671 889.27052,171.01671 C 889.27052,171.01671 887.19172,168.34401 893.13102,168.64098 z "
       id="RI" />
    <path
       style="fill:white;fill-opacity:1;fill-rule:evenodd;stroke:black;stroke-width:1px;stroke-linecap:butt;stroke-linejoin:miter;stroke-opacity:1"
       d="M 860.76172,173.39244 C 860.76172,173.39244 885.11292,169.23491 887.78562,168.93795 C 890.45832,168.64098 894.02192,167.45311 895.20982,170.12581 C 896.39762,172.79851 899.07032,176.3621 901.14912,175.17423 C 903.22792,173.98637 902.33702,172.50154 904.11882,171.90761 C 905.90062,171.31367 909.16723,172.50154 911.24593,171.61064 C 913.32473,170.71974 917.48223,168.34401 917.18533,166.56222 C 916.88833,164.78042 916.88833,161.81076 914.80953,161.81076 C 912.73083,161.81076 912.73083,166.56222 909.76113,166.56222 C 906.79153,166.56222 898.77342,162.70166 898.47642,160.62289 C 898.17942,158.54413 900.55522,155.87144 899.96122,153.49571 C 899.36732,151.11998 900.25822,147.85335 897.88252,147.85335 C 895.50672,147.85335 893.13102,153.49571 890.16142,153.79267 C 887.19172,154.08964 876.79792,155.2775 874.42212,155.87144 C 872.04642,156.46537 860.76172,159.13806 860.76172,159.13806 L 860.76172,173.39244 z "
       id="MA" />
    <path
       style="fill:white;fill-opacity:1;fill-rule:evenodd;stroke:black;stroke-width:1px;stroke-linecap:butt;stroke-linejoin:miter;stroke-opacity:1"
       d="M 898.17942,147.55638 C 898.17942,147.55638 896.39762,143.39886 896.99162,142.21099 C 897.58552,141.02313 893.13102,141.02313 891.64622,138.05347 C 890.16142,135.08381 880.36152,100.9327 880.36152,100.9327 L 875.90702,100.33877 L 872.34342,108.65382 C 872.34342,108.65382 877.98572,115.18707 877.39182,117.85977 C 876.79792,120.53246 873.82822,123.79909 873.23432,125.87786 C 872.64042,127.95662 870.85862,157.0593 870.85862,157.0593 C 870.85862,157.0593 891.05232,154.98054 892.24012,153.49571 C 893.42802,152.01088 899.07032,147.85335 898.17942,147.55638 z "
       id="NH" />
    <path
       style="fill:white;fill-opacity:1;fill-rule:evenodd;stroke:black;stroke-width:1px;stroke-linecap:butt;stroke-linejoin:miter;stroke-opacity:1"
       d="M 861.65262,159.13806 L 871.15552,156.76233 L 873.53122,126.17482 C 873.53122,126.17482 879.17362,120.53246 878.28272,117.85977 C 877.39182,115.18707 872.93732,109.24775 872.93732,109.24775 L 847.69522,114.89011 C 847.69522,114.89011 850.96182,123.79909 850.07092,126.76875 C 849.18002,129.73841 850.36792,136.56864 852.14972,138.94437 C 853.93152,141.32009 859.57382,148.44728 858.97992,150.22908 C 858.38602,152.01088 860.76172,160.02896 861.65262,159.13806 z "
       id="VT" />
    <path
       style="fill:white;fill-opacity:1;fill-rule:evenodd;stroke:black;stroke-width:1px;stroke-linecap:butt;stroke-linejoin:miter;stroke-opacity:1"
       d="M 897.28852,141.61706 C 897.28852,141.61706 894.91282,141.32009 893.13102,139.24133 C 891.34922,137.16257 880.06452,100.63574 880.06452,100.63574 C 880.06452,100.63574 885.40992,89.647984 885.70692,87.866184 C 886.00382,86.084394 884.51902,65.29676 886.30082,62.327099 C 888.08262,59.357437 892.24012,48.963622 894.02192,48.963622 C 895.80372,48.963622 896.10072,52.527216 898.17942,52.527216 C 900.25822,52.527216 903.22792,46.290927 905.00972,45.993961 C 906.79153,45.696995 911.24593,44.50913 913.02773,47.478792 C 914.80953,50.448453 919.85798,73.908778 921.93668,75.393609 C 924.01548,76.87844 928.17298,77.769338 928.46998,78.957203 C 928.76698,80.145067 928.17298,83.411694 929.65788,84.302594 C 931.14268,85.193494 937.97288,86.084394 938.86378,88.460114 C 939.75468,90.835844 940.34858,94.399444 937.37898,96.775177 C 934.40928,99.150907 932.03358,98.853937 931.43958,100.0418 C 930.84568,101.22967 931.73658,103.01147 927.57908,106.27809 C 923.42158,109.54472 919.85798,107.46595 917.77923,108.35685 C 915.70043,109.24775 916.59133,114.59314 913.91863,117.85977 C 911.24593,121.1264 906.49453,122.61123 904.41572,124.39302 C 902.33702,126.17482 896.99162,142.21099 897.28852,141.61706 z "
       id="ME" />
    <path
       style="fill:white;fill-opacity:1;fill-rule:evenodd;stroke:black;stroke-width:1px;stroke-linecap:butt;stroke-linejoin:miter;stroke-opacity:1"
       d="M 844.42862,194.18007 C 844.42862,194.18007 836.70742,181.11356 833.14392,181.70749 C 829.58032,182.30142 819.18642,186.16198 813.84112,187.05288 C 808.49572,187.94378 780.58082,192.39827 780.58082,192.39827 C 780.58082,192.39827 771.07792,194.774 768.40522,193.8831 C 765.73252,192.9922 764.84162,190.91344 764.84162,190.91344 C 764.84162,190.91344 760.09022,194.18007 758.90232,195.96186 C 757.71452,197.74366 755.04182,201.01029 755.04182,201.01029 C 755.04182,201.01029 757.71452,220.01612 758.60542,223.57972 C 759.49632,227.14331 762.76292,243.77341 762.76292,243.77341 C 762.76292,243.77341 772.56282,242.88252 783.84752,241.10072 C 795.13222,239.31892 835.51962,231.89477 835.51962,231.89477 C 835.51962,231.89477 835.81652,230.11297 837.59832,228.62814 C 839.38012,227.14331 840.56802,230.7069 842.34982,228.33117 C 844.13162,225.95544 848.88312,218.53129 847.99222,217.34343 C 847.10132,216.15556 845.91342,216.74949 844.13162,214.0768 C 842.34982,211.4041 841.16192,201.30726 841.45892,199.22849 C 841.75592,197.14973 844.72552,194.47703 844.42862,194.18007 z "
       id="PA" />
    <path
       style="fill:white;fill-opacity:1;fill-rule:evenodd;stroke:black;stroke-width:1px;stroke-linecap:butt;stroke-linejoin:miter;stroke-opacity:1"
       d="M 755.04182,200.71332 C 755.04182,200.71332 747.02372,201.90119 744.64792,203.38602 C 742.27222,204.87085 741.97522,207.84051 739.00562,209.02837 C 736.03592,210.21624 738.41172,209.62231 733.06632,210.81017 C 727.72092,211.99804 724.75122,216.15556 720.89072,216.15556 C 717.03012,216.15556 717.32712,212.88893 712.57562,212.295 C 707.82412,211.70107 705.15142,210.51321 700.10302,211.99804 C 695.05462,213.48287 689.41222,214.9677 689.41222,214.9677 C 689.41222,214.9677 688.52132,232.78567 690.30312,237.53712 C 692.08492,242.28858 693.56982,255.65206 693.56982,258.32475 C 693.56982,260.99745 694.75762,270.50037 694.75762,270.50037 L 700.40002,269.60947 C 700.40002,269.60947 703.36972,273.17306 705.74542,274.06396 C 708.12112,274.95486 717.32712,276.43969 719.99982,276.43969 C 722.67242,276.43969 723.86032,274.06396 725.04822,274.06396 C 726.23602,274.06396 734.25412,278.22149 734.25412,278.22149 C 734.25412,278.22149 737.22382,269.3125 737.81772,266.34284 C 738.41172,263.37318 746.13282,257.13689 748.80552,254.76116 C 751.47822,252.38543 757.12052,244.96128 757.12052,244.96128 C 757.12052,244.96128 759.49632,227.14331 759.49632,224.76758 C 759.49632,222.39185 754.74482,201.60422 755.04182,200.71332 z "
       id="OH" />
    <path
       style="fill:white;fill-opacity:1;fill-rule:evenodd;stroke:black;stroke-width:1px;stroke-linecap:butt;stroke-linejoin:miter;stroke-opacity:1"
       d="M 759.49632,224.76758 L 763.95072,244.96128 L 776.42332,242.58555 L 781.47172,250.9006 C 781.47172,250.9006 790.67772,241.69465 794.53832,241.69465 C 798.39882,241.69465 804.93212,240.50679 806.71392,243.77341 C 808.49572,247.04004 806.41692,249.71274 803.74422,249.71274 C 801.07152,249.71274 796.61702,249.71274 796.61702,249.71274 L 793.94432,260.10655 L 789.78682,262.77925 C 789.78682,262.77925 793.05342,262.18531 790.08382,265.74891 C 787.11412,269.3125 780.58082,271.0943 780.58082,271.0943 L 775.82942,279.40935 L 771.67192,288.02137 C 771.67192,288.02137 774.93852,289.80317 772.56282,291.288 C 770.18702,292.77283 767.51432,294.25766 765.43562,295.44552 C 763.35682,296.63339 749.99332,300.79091 748.50852,300.19698 C 747.02372,299.60305 748.80552,300.19698 745.53882,297.22732 C 742.27222,294.25766 735.73902,291.288 735.14502,288.6153 C 734.55112,285.94261 733.36322,282.67598 733.36322,277.92452 C 733.36322,273.17306 737.81772,267.5307 738.11472,264.85801 C 738.41172,262.18531 756.22962,247.33701 757.12052,245.55521 C 758.01142,243.77341 759.49632,224.47061 759.49632,224.76758 z "
       id="WV" />
    <path
       style="fill:white;fill-opacity:1;fill-rule:evenodd;stroke:black;stroke-width:1px;stroke-linecap:butt;stroke-linejoin:miter;stroke-opacity:1"
       d="M 645.75822,327.81483 L 644.57042,324.84517 C 644.57042,324.84517 665.65502,323.36034 674.26702,323.06337 C 682.87902,322.76641 724.15732,318.01495 724.15732,318.01495 C 724.15732,318.01495 730.09662,314.74832 731.87842,312.66956 C 733.66022,310.5908 736.03592,306.73024 737.81772,304.65147 C 739.59952,302.57271 745.24192,297.22732 745.24192,297.22732 C 745.24192,297.22732 739.30262,294.25766 737.52082,291.288 C 735.73902,288.31833 736.92682,283.56688 733.36322,279.40935 C 729.79962,275.25182 728.31482,273.47003 725.64212,273.76699 C 722.96942,274.06396 722.96942,276.43969 720.59372,276.43969 C 718.21802,276.43969 714.65442,275.25182 711.38772,274.65789 C 708.12112,274.06396 705.74542,274.36093 704.55752,272.8761 C 703.36972,271.39126 700.99392,269.3125 700.99392,269.3125 L 695.64852,269.60947 L 695.35162,274.06396 C 695.35162,274.06396 688.81832,275.84576 686.73952,280.00328 C 684.66082,284.16081 684.36382,288.91227 681.09722,290.3971 C 677.83062,291.88193 673.07912,293.36676 671.29732,293.36676 C 669.51552,293.36676 670.10942,295.14856 666.84282,296.03945 C 663.57622,296.93035 657.63692,297.52429 653.18242,298.41518 C 648.72792,299.30608 646.35222,300.79091 644.57042,302.86968 C 642.78862,304.94844 643.97642,309.10596 643.97642,309.10596 L 641.00682,310.29383 L 639.52192,315.34225 C 639.52192,315.34225 634.47352,316.23315 632.98872,316.23315 C 631.50382,316.23315 629.12812,317.71798 629.12812,317.71798 C 629.12812,317.71798 630.01902,323.95427 629.12812,325.4391 C 628.23722,326.92393 625.26762,330.48753 625.26762,330.48753 C 625.26762,330.48753 633.28562,328.70573 635.95832,328.70573 C 638.63102,328.70573 645.75822,328.1118 645.75822,327.81483 z "
       id="KY" />
    <path
       style="fill:white;fill-opacity:1;fill-rule:evenodd;stroke:black;stroke-width:1px;stroke-linecap:butt;stroke-linejoin:miter;stroke-opacity:1"
       d="M 645.46132,325.14214 C 645.46132,325.14214 715.24832,320.09371 719.40582,319.49978 C 723.56332,318.90585 753.55692,314.74832 753.55692,314.74832 C 753.55692,314.74832 747.61762,324.5482 746.42972,326.03303 C 745.24192,327.51787 742.86612,325.73607 738.41172,326.62697 C 733.95722,327.51787 737.22382,329.89359 733.06632,333.75415 C 728.90872,337.61471 721.78162,339.99044 718.81192,344.7419 C 715.84222,349.49336 715.24832,355.13572 715.24832,355.13572 C 715.24832,355.13572 698.61822,357.80841 693.56982,357.80841 C 688.52132,357.80841 671.29732,359.88717 662.68532,360.77807 C 654.07332,361.66897 631.50382,362.2629 627.04942,362.85684 C 622.59492,363.45077 613.68592,362.2629 613.68592,362.2629 C 613.68592,362.2629 613.38892,350.38426 617.54642,346.82066 C 621.70402,343.25707 624.97062,331.37843 624.97062,331.37843 L 646.35222,328.1118 L 645.46132,325.14214 z "
       id="TN" />
    <path
       style="fill:white;fill-opacity:1;fill-rule:evenodd;stroke:black;stroke-width:1px;stroke-linecap:butt;stroke-linejoin:miter;stroke-opacity:1"
       d="M 626.15852,449.27398 C 626.15852,449.27398 622.89182,454.91634 624.37672,456.40117 C 625.86152,457.886 629.42512,459.96476 629.42512,459.96476 C 629.42512,459.96476 628.53422,460.5587 629.12812,462.04353 C 629.72202,463.52836 631.20692,464.41926 631.20692,464.41926 L 627.64332,470.06161 L 634.17652,470.65555 C 634.17652,470.65555 628.23722,473.92217 630.01902,476.89183 C 631.80082,479.8615 638.33412,482.83116 639.52192,483.12812 C 640.70982,483.42509 639.81892,486.98868 637.44322,487.58262 C 635.06742,488.17655 627.04942,482.23723 625.56452,482.23723 C 624.07972,482.23723 622.59492,485.80082 619.92222,485.80082 C 617.24952,485.80082 612.49802,485.20689 612.49802,485.20689 C 612.49802,485.20689 611.90412,489.06745 607.74662,487.58262 C 603.58902,486.09779 603.29212,484.61295 600.91632,481.04936 C 598.54062,477.48577 597.64972,476.2979 593.49222,475.70397 C 589.33472,475.11004 588.44382,476.89183 584.28622,477.78273 C 580.12872,478.67363 573.89242,479.56453 571.51672,478.37667 C 569.14102,477.1888 562.31072,474.21914 559.04412,474.21914 C 555.77752,474.21914 553.40172,475.11004 553.40172,475.11004 C 553.40172,475.11004 555.77752,465.31016 556.66842,461.15263 C 557.55932,456.9951 558.45022,446.60129 557.26232,445.11646 C 556.07442,443.63163 552.51092,440.95893 552.80782,437.98927 C 553.10482,435.01961 549.24422,427.89242 549.24422,427.89242 L 548.65032,406.21389 L 598.83762,406.80783 C 598.83762,406.80783 604.18302,410.96535 603.58902,412.74715 C 602.99512,414.52895 602.10422,418.09254 602.10422,418.09254 C 602.10422,418.09254 604.47992,418.3895 603.88602,421.9531 C 603.29212,425.51669 599.43152,430.26815 598.24362,433.53478 C 597.05582,436.80141 593.78912,447.19522 595.57092,448.08612 C 597.35272,448.97702 602.99512,446.89825 608.04352,447.19522 C 613.09192,447.49219 625.86152,449.27398 626.15852,449.27398 z "
       id="LA" />
    <path
       style="fill:white;fill-opacity:1;fill-rule:evenodd;stroke:black;stroke-width:1px;stroke-linecap:butt;stroke-linejoin:miter;stroke-opacity:1"
       d="M 600.02542,407.40176 C 600.02542,407.40176 600.32242,404.13513 599.72852,401.7594 C 599.13452,399.38367 597.35272,400.8685 597.94672,396.71098 C 598.54062,392.55345 614.27982,364.0447 614.27982,364.0447 C 614.27982,364.0447 614.27982,360.18414 614.87372,354.83875 C 615.46772,349.49336 621.11002,342.06921 621.11002,342.06921 L 610.12232,340.88134 C 610.12232,340.88134 613.68592,334.94202 613.98282,333.75415 C 614.27982,332.56629 538.55342,335.23899 538.55342,335.23899 L 539.14742,395.22615 L 547.46242,398.78974 L 547.75942,405.91693 L 600.02542,407.40176 z "
       id="AR" />
    <path
       style="fill:white;fill-opacity:1;fill-rule:evenodd;stroke:black;stroke-width:1px;stroke-linecap:butt;stroke-linejoin:miter;stroke-opacity:1"
       d="M 614.57682,334.05112 L 610.71622,342.06921 L 620.81312,342.36617 C 620.81312,342.36617 623.78272,333.75415 625.26762,331.37843 C 626.75242,329.0027 629.42512,318.60888 629.42512,318.60888 L 624.07972,318.31192 C 624.07972,318.31192 622.00092,309.6999 619.92222,307.0272 C 617.84342,304.35451 607.15262,296.03945 607.15262,296.03945 L 607.74662,282.08205 L 601.51032,280.30025 C 601.51032,280.30025 596.46182,271.39126 594.08612,268.71857 C 591.71042,266.04587 585.47412,260.99745 585.77112,258.62172 C 586.06802,256.24599 586.95892,251.7915 586.95892,251.7915 C 586.95892,251.7915 581.01962,246.74307 576.56512,246.74307 C 572.11062,246.74307 560.82592,247.93094 557.26232,247.93094 C 553.69872,247.93094 517.46882,246.74307 517.46882,246.74307 C 517.46882,246.74307 518.95372,255.65206 522.22032,258.32475 C 525.48692,260.99745 529.34752,260.40352 529.34752,262.77925 C 529.34752,265.15498 527.26872,270.50037 528.75362,272.57913 C 530.23842,274.65789 534.98982,277.62755 535.58382,279.70632 C 536.17772,281.78508 537.95952,320.68764 537.66252,324.5482 C 537.36562,328.40876 537.95952,335.53595 537.95952,335.53595 L 614.57682,334.05112 z "
       id="MO" />
    <path
       style="fill:white;fill-opacity:1;fill-rule:evenodd;stroke:black;stroke-width:1px;stroke-linecap:butt;stroke-linejoin:miter;stroke-opacity:1"
       d="M 689.11532,212.88893 C 689.11532,212.88893 687.92742,228.92511 689.11532,234.2705 C 690.30312,239.61589 693.56982,245.55521 693.56982,251.49453 C 693.56982,257.43386 695.05462,274.36093 695.05462,274.36093 C 695.05462,274.36093 689.70922,276.43969 688.52132,278.51845 C 687.33352,280.59722 690.00622,287.42744 683.76992,289.20923 C 677.53362,290.99103 671.00032,293.96069 671.00032,293.96069 C 671.00032,293.96069 662.38832,296.63339 658.52782,296.93035 C 654.66722,297.22732 646.05522,301.38485 646.05522,301.38485 C 646.05522,301.38485 646.94612,291.58496 650.21272,285.94261 C 653.47932,280.30025 649.91572,261.59138 649.91572,258.91869 C 649.91572,256.24599 646.64912,239.31892 646.64912,233.97353 C 646.64912,228.62814 646.94612,219.71916 646.94612,219.71916 C 646.94612,219.71916 650.21272,221.20399 653.18242,220.31309 C 656.15202,219.42219 658.52782,214.9677 658.52782,214.9677 L 689.11532,212.88893 z "
       id="IN" />
    <path
       style="fill:white;fill-opacity:1;fill-rule:evenodd;stroke:black;stroke-width:1px;stroke-linecap:butt;stroke-linejoin:miter;stroke-opacity:1"
       d="M 658.82472,215.56163 L 689.11532,213.1859 L 689.70922,214.0768 L 706.33932,210.81017 L 712.57562,203.08905 C 712.57562,203.08905 713.16952,199.52546 714.65442,195.07097 C 716.13922,190.61647 720.29672,189.72558 720.59372,186.75591 C 720.89072,183.78625 718.21802,176.3621 717.32712,173.09547 C 716.43622,169.82884 714.95132,164.18649 710.49682,163.59256 C 706.04232,162.99862 698.91522,169.53188 698.91522,169.53188 C 698.91522,169.53188 696.53942,166.26525 699.21212,162.40469 C 701.88482,158.54413 703.96362,154.98054 703.96362,151.71391 C 703.96362,148.44728 701.58792,144.88369 701.29092,141.61706 C 700.99392,138.35043 704.55752,136.27167 700.40002,134.48987 C 696.24252,132.70808 681.69112,129.14448 679.01842,129.73841 C 676.34572,130.33235 676.64272,133.89594 675.75182,136.8656 C 674.86092,139.83526 673.37612,146.07155 673.07912,147.25942 C 672.78212,148.44728 663.27922,150.82301 662.09142,152.01088 C 660.90352,153.19874 660.30962,160.32593 658.82472,162.99862 C 657.33992,165.67132 658.52782,175.17423 658.82472,178.73783 C 659.12172,182.30142 665.65502,187.64681 664.17012,192.69524 C 662.68532,197.74366 667.43672,202.79209 663.57622,207.24658 C 659.71562,211.70107 659.71562,216.74949 658.82472,215.56163 z "
       id="MI" />
    <path
       style="fill:white;fill-opacity:1;fill-rule:evenodd;stroke:black;stroke-width:1px;stroke-linecap:butt;stroke-linejoin:miter;stroke-opacity:1"
       d="M 638.03712,203.08905 C 638.03712,203.08905 640.70982,210.21624 642.19462,212.88893 C 643.67952,215.56163 647.24302,219.12522 647.24302,219.12522 C 647.24302,219.12522 646.94612,232.78567 646.94612,236.34926 C 646.94612,239.91285 651.10362,263.67014 651.10362,268.4216 C 651.10362,273.17306 650.21272,283.26991 649.61882,287.42744 C 649.02482,291.58496 646.64912,301.68181 646.64912,301.68181 L 644.86732,304.94844 L 644.86732,308.809 L 641.60072,310.88776 L 640.11592,315.34225 C 640.11592,315.34225 631.80082,315.34225 630.61292,316.23315 C 629.42512,317.12405 625.26762,318.01495 625.26762,318.01495 C 625.26762,318.01495 622.29792,307.62113 620.21912,306.1363 C 618.14042,304.65147 607.15262,295.14856 607.15262,295.14856 L 608.63752,281.19115 L 601.21332,281.19115 C 601.21332,281.19115 598.24362,276.14272 595.86792,271.68823 C 593.49222,267.23374 588.44382,263.67014 587.55292,260.40352 C 586.66202,257.13689 587.84982,246.74307 588.44382,245.25824 C 589.03772,243.77341 591.41342,242.58555 591.41342,242.58555 L 592.60132,231.00387 C 592.60132,231.00387 596.75882,227.73724 598.54062,226.25241 C 600.32242,224.76758 602.69812,222.09489 602.69812,222.09489 L 603.29212,214.0768 C 603.29212,214.0768 600.32242,211.99804 599.43152,210.81017 C 598.54062,209.62231 596.46182,205.46478 596.46182,205.46478 L 638.03712,203.08905 z "
       id="IL" />
    <path
       style="fill:white;fill-opacity:1;fill-rule:evenodd;stroke:black;stroke-width:1px;stroke-linecap:butt;stroke-linejoin:miter;stroke-opacity:1"
       d="M 638.92802,203.08905 C 638.92802,201.90119 641.00682,197.4467 640.11592,195.36793 C 639.22502,193.28917 636.25532,189.72558 635.95832,187.05288 C 635.66142,184.38019 639.22502,181.11356 639.22502,178.73783 C 639.22502,176.3621 638.63102,173.6894 638.92802,171.01671 C 639.22502,168.34401 645.16432,154.08964 645.75822,151.71391 C 646.35222,149.33818 645.46132,143.39886 645.46132,143.39886 C 645.46132,143.39886 641.60072,151.11998 640.41282,152.60481 C 639.22502,154.08964 634.17652,158.24716 634.17652,158.24716 C 634.17652,158.24716 632.98872,153.79267 633.58262,152.01088 C 634.17652,150.22908 637.14622,145.18065 637.14622,145.18065 C 637.14622,145.18065 635.06742,142.80493 634.47352,140.72616 C 633.87962,138.6474 632.39472,133.30201 632.39472,133.30201 C 632.39472,133.30201 622.00092,129.14448 616.35862,127.36269 C 610.71622,125.58089 595.86792,117.85977 595.86792,117.85977 L 586.95892,116.96887 C 586.95892,116.96887 588.14682,113.70224 585.77112,113.70224 C 583.39532,113.70224 575.37722,117.85977 575.37722,117.85977 C 575.37722,117.85977 569.14102,116.96887 567.65612,117.85977 C 566.17132,118.75067 566.46832,130.03538 566.46832,130.03538 C 566.46832,130.03538 562.31072,134.78684 561.41982,136.56864 C 560.52892,138.35043 560.23202,159.43503 563.20162,161.21683 C 566.17132,162.99862 569.43792,163.29559 571.81362,165.37435 C 574.18942,167.45311 580.12872,171.31367 581.91052,174.28334 C 583.69232,177.253 585.17712,179.62873 585.17712,184.08322 C 585.17712,188.53771 586.66202,196.85276 589.03772,198.93153 C 591.41342,201.01029 597.35272,206.35568 597.35272,206.35568 L 638.92802,203.08905 z "
       id="WI" />
    <path
       style="fill:white;fill-opacity:1;fill-rule:evenodd;stroke:black;stroke-width:1px;stroke-linecap:butt;stroke-linejoin:miter;stroke-opacity:1"
       d="M 632.09782,132.41111 C 632.09782,132.41111 634.77052,140.72616 635.66142,142.50796 C 636.55232,144.28976 638.03712,144.88369 638.03712,144.88369 C 638.03712,144.88369 641.60072,142.80493 641.60072,140.72616 C 641.60072,138.6474 640.70982,134.78684 643.38252,132.70808 C 646.05522,130.62931 654.07332,130.92628 655.26112,130.92628 C 656.44902,130.92628 655.55812,124.68999 660.60652,123.79909 C 665.65502,122.90819 670.70342,120.82943 673.37612,121.1264 C 676.04882,121.42336 678.42452,124.98696 679.61242,124.39302 C 680.80022,123.79909 680.20632,121.42336 681.98812,121.1264 C 683.76992,120.82943 686.73952,121.72033 687.33352,120.2355 C 687.92742,118.75067 686.14562,114.89011 682.87902,113.99921 C 679.61242,113.10831 674.56392,113.40528 674.56392,113.40528 C 674.56392,113.40528 676.34572,111.02955 671.89122,109.24775 C 667.43672,107.46595 665.95192,111.62348 662.98232,111.62348 C 660.01262,111.62348 658.23082,111.62348 656.15202,113.10831 C 654.07332,114.59314 654.37022,116.37494 652.58842,116.6719 C 650.80662,116.96887 639.81892,116.96887 639.81892,116.96887 C 639.81892,116.96887 636.25532,111.92045 633.58262,110.73258 C 630.90992,109.54472 625.26762,110.13865 624.07972,108.65382 C 622.89182,107.16899 622.00092,103.90236 624.07972,101.52663 C 626.15852,99.150907 628.83112,97.072137 628.83112,97.072137 L 625.56452,97.072137 L 611.60712,111.62348 C 611.60712,111.62348 607.44962,111.62348 604.77692,112.51438 C 602.10422,113.40528 596.46182,117.5628 596.46182,117.5628 C 596.46182,117.5628 607.44962,124.09606 610.41922,124.98696 C 613.38892,125.87786 616.65552,128.25358 620.51612,128.84752 C 624.37672,129.44145 632.09782,132.11414 632.09782,132.41111 z "
       id="MI_NORTH" />
    <path
       style="fill:white;fill-opacity:1;fill-rule:evenodd;stroke:black;stroke-width:1px;stroke-linecap:butt;stroke-linejoin:miter;stroke-opacity:1"
       d="M 585.47412,184.67715 C 585.47412,184.67715 585.47412,197.74366 588.14682,198.93153 C 590.81952,200.11939 595.57092,203.97995 596.75882,205.16782 C 597.94672,206.35568 597.35272,209.32534 598.83762,210.81017 C 600.32242,212.295 603.58902,214.9677 603.58902,214.9677 C 603.58902,214.9677 603.58902,222.39185 602.10422,223.28275 C 600.61942,224.17365 593.49222,228.33117 593.19522,230.40994 C 592.89822,232.4887 592.30432,240.50679 591.41342,242.28858 C 590.52252,244.07038 589.03772,245.25824 589.03772,245.25824 L 587.84982,251.19757 C 587.84982,251.19757 581.61352,247.33701 579.83172,247.04004 C 578.04992,246.74307 561.41982,247.93094 558.74712,247.93094 C 556.07442,247.93094 532.31722,247.33701 532.31722,247.33701 L 517.46882,246.44611 C 517.46882,246.44611 514.20222,231.5978 513.31132,228.62814 C 512.42042,225.65848 506.77812,208.73141 506.18412,206.94961 C 505.59022,205.16782 508.26292,198.63456 506.48112,196.5558 C 504.69932,194.47703 503.51142,189.42861 504.40232,188.24074 C 505.29322,187.05288 523.70512,186.45895 527.56572,186.16198 C 531.42632,185.86502 556.37142,185.56805 558.74712,185.56805 C 561.12292,185.56805 586.06802,184.97412 585.47412,184.67715 z "
       id="IA" />
    <path
       style="fill:white;fill-opacity:1;fill-rule:evenodd;stroke:black;stroke-width:1px;stroke-linecap:butt;stroke-linejoin:miter;stroke-opacity:1"
       d="M 585.77112,184.67715 C 585.77112,184.67715 584.88022,173.39244 580.12872,171.31367 C 575.37722,169.23491 575.37722,165.07739 570.32882,163.88952 C 565.28042,162.70166 565.87432,165.37435 563.20162,161.21683 C 560.52892,157.0593 561.12292,151.11998 561.12292,148.44728 C 561.12292,145.77459 562.01382,139.5383 562.31072,137.16257 C 562.60772,134.78684 567.65612,133.00504 567.95312,130.92628 C 568.25012,128.84752 565.28042,118.4537 566.76522,117.85977 C 568.25012,117.26584 570.62582,118.75067 570.62582,116.07797 C 570.62582,113.40528 576.56512,107.46595 578.04992,105.09023 C 579.53482,102.7145 583.69232,97.963037 587.84982,95.587307 C 592.00732,93.211574 604.47992,91.429784 601.80722,88.757084 C 599.13452,86.084394 595.86792,87.866184 593.19522,86.975284 C 590.52252,86.084394 589.63162,84.896524 586.95892,84.896524 C 584.28622,84.896524 576.56512,87.866184 574.18942,87.569224 C 571.81362,87.272254 572.70452,85.787424 570.03192,84.599554 C 567.35922,83.411694 564.38952,83.708664 563.20162,83.411694 C 562.01382,83.114724 559.34112,79.254169 557.85622,78.066304 C 556.37142,76.87844 541.22612,78.36327 541.22612,78.36327 C 541.22612,78.36327 539.44432,74.205744 536.77162,73.908778 C 534.09892,73.611812 531.42632,73.611812 531.42632,73.611812 L 527.56572,63.217997 L 524.00212,63.217997 L 521.92332,70.642151 L 496.08732,70.345185 C 496.08732,70.345185 496.08732,85.193494 496.08732,86.975284 C 496.08732,88.757084 500.24482,96.478207 499.94782,101.22967 C 499.65092,105.98112 502.02662,121.42336 502.02662,123.50213 C 502.02662,125.58089 502.62052,128.25358 503.21452,130.62931 C 503.80842,133.00504 500.54182,137.7565 501.43272,141.02313 C 502.32362,144.28976 506.18412,147.55638 506.18412,147.55638 L 505.88722,187.94378 L 585.77112,184.67715 z "
       id="MN" />
    <path
       style="fill:white;fill-opacity:1;fill-rule:evenodd;stroke:black;stroke-width:1px;stroke-linecap:butt;stroke-linejoin:miter;stroke-opacity:1"
       d="M 496.38422,70.939117 C 496.38422,70.939117 495.19642,87.272254 496.08732,89.647984 C 496.97822,92.023714 499.94782,92.914614 500.24482,99.150907 C 500.54182,105.38719 502.02662,120.53246 502.02662,122.90819 C 502.02662,125.28392 504.69932,130.92628 503.80842,132.41111 C 502.91752,133.89594 501.72962,135.9747 501.72962,135.9747 C 501.72962,135.9747 485.69352,135.08381 478.56632,134.19291 C 471.43912,133.30201 454.80902,132.11414 449.16662,132.11414 C 443.52432,132.11414 422.43972,130.92628 417.68822,130.33235 C 412.93682,129.73841 393.93092,129.73841 393.93092,129.73841 C 393.93092,129.73841 396.90062,106.27809 397.19762,103.60539 C 397.49452,100.9327 398.68242,80.145067 398.97942,76.87844 C 399.27632,73.611812 399.87032,65.29676 399.87032,65.29676 C 399.87032,65.29676 440.55462,67.672489 444.11822,68.860354 C 447.68182,70.048218 471.43912,69.454286 475.59662,70.345185 C 479.75412,71.236083 496.68122,70.939117 496.38422,70.939117 z "
       id="ND" />
    <path
       style="fill:white;fill-opacity:1;fill-rule:evenodd;stroke:black;stroke-width:1px;stroke-linecap:butt;stroke-linejoin:miter;stroke-opacity:1"
       d="M 501.13572,136.56864 C 501.13572,136.56864 501.13572,141.91403 502.62052,143.69582 C 504.10542,145.47762 507.37202,148.74425 507.37202,148.74425 L 505.59022,186.45895 C 505.59022,186.45895 504.10542,187.05288 504.10542,188.24074 C 504.10542,189.42861 507.96592,196.5558 507.96592,198.33759 C 507.96592,200.11939 506.48112,206.05871 506.48112,206.05871 C 506.48112,206.05871 498.46302,200.41636 495.49342,200.11939 C 492.52372,199.82242 486.58442,199.22849 486.58442,199.22849 L 483.02082,201.30726 C 483.02082,201.30726 481.83292,197.14973 474.40882,196.25883 C 466.98462,195.36793 446.49392,194.18007 434.02142,193.8831 C 421.54882,193.58614 404.62172,191.50737 400.76122,191.50737 C 396.90062,191.50737 389.17952,192.39827 389.17952,192.39827 C 389.17952,192.39827 392.44612,170.12581 392.14912,166.85918 C 391.85222,163.59256 394.52492,148.44728 394.22792,143.10189 C 393.93092,137.7565 394.82182,129.44145 394.82182,129.44145 C 394.82182,129.44145 422.43972,130.62931 428.67602,131.22325 C 434.91232,131.81718 456.29382,131.81718 463.42102,132.41111 C 470.54822,133.00504 488.96012,134.78684 492.52372,134.78684 C 496.08732,134.78684 501.43272,136.27167 501.13572,136.56864 z "
       id="SD" />
    <path
       style="fill:white;fill-opacity:1;fill-rule:evenodd;stroke:black;stroke-width:1px;stroke-linecap:butt;stroke-linejoin:miter;stroke-opacity:1"
       d="M 386.20982,232.78567 L 415.90642,237.24016 L 417.39132,257.73082 C 417.39132,257.73082 457.48172,258.02779 460.45132,258.02779 C 463.42102,258.02779 490.44492,259.51262 493.11762,259.51262 C 495.79032,259.51262 524.29912,259.51262 524.29912,259.51262 C 524.29912,259.51262 519.84462,256.54296 518.06282,247.63397 C 516.28102,238.72499 514.20222,227.73724 512.42042,225.06455 C 510.63862,222.39185 509.74772,214.37377 507.96592,211.70107 C 506.18412,209.02837 506.48112,205.76175 506.48112,205.76175 C 506.48112,205.76175 498.46302,198.93153 493.11762,198.93153 C 487.77222,198.93153 483.91172,201.60422 483.91172,201.60422 C 483.91172,201.60422 480.64502,197.14973 478.26932,196.5558 C 475.89362,195.96186 455.69992,194.47703 452.13632,194.47703 C 448.57272,194.47703 428.37902,193.8831 425.70632,193.28917 C 423.03362,192.69524 408.18532,191.21041 402.83992,191.21041 C 397.49452,191.21041 392.14912,191.50737 390.66432,192.1013 C 389.17952,192.69524 387.69462,215.8586 387.10072,217.04646 C 386.50682,218.23433 385.91282,232.4887 386.20982,232.78567 z "
       id="NE" />
    <path
       style="fill:white;fill-opacity:1;fill-rule:evenodd;stroke:black;stroke-width:1px;stroke-linecap:butt;stroke-linejoin:miter;stroke-opacity:1"
       d="M 418.57912,256.83992 C 418.57912,256.83992 458.66952,257.73082 466.39072,258.32475 C 474.11182,258.91869 494.30552,260.70048 500.24482,259.80959 C 506.18412,258.91869 524.00212,259.51262 524.00212,259.51262 L 528.45662,262.18531 C 528.45662,262.18531 526.97182,269.3125 528.15962,271.0943 C 529.34752,272.8761 535.58382,277.03362 536.17772,280.00328 C 536.77162,282.97294 535.58382,299.60305 535.58382,303.16664 C 535.58382,306.73024 537.66252,324.25124 537.66252,324.25124 C 537.66252,324.25124 512.42042,323.65731 504.99632,323.65731 C 497.57212,323.65731 469.36032,323.36034 465.49982,323.36034 C 461.63922,323.36034 432.53652,322.46944 429.26992,321.87551 C 426.00332,321.28158 412.63982,320.68764 412.63982,320.68764 C 412.63982,320.68764 414.71862,294.55462 414.71862,290.69406 C 414.71862,286.8335 418.57912,256.83992 418.57912,256.83992 z "
       id="KS" />
    <path
       style="fill:white;fill-opacity:1;fill-rule:evenodd;stroke:black;stroke-width:1px;stroke-linecap:butt;stroke-linejoin:miter;stroke-opacity:1"
       d="M 395.71272,321.28158 C 395.71272,321.28158 410.85802,319.20281 413.23372,319.49978 C 415.60952,319.79675 454.80902,322.76641 458.07562,322.76641 C 461.34222,322.76641 502.32362,323.65731 505.29322,323.65731 C 508.26292,323.65731 536.77162,323.95427 536.77162,323.95427 C 536.77162,323.95427 539.44432,352.46302 539.14742,356.32358 C 538.85042,360.18414 539.44432,394.63221 539.44432,394.63221 C 539.44432,394.63221 533.50502,388.98986 528.75362,388.98986 C 524.00212,388.98986 516.28102,389.28682 514.20222,389.58379 C 512.12352,389.88076 511.23262,392.25648 508.55992,392.55345 C 505.88722,392.85042 495.49342,392.25648 492.52372,391.66255 C 489.55402,391.06862 490.14802,388.39592 487.77222,388.39592 C 485.39652,388.39592 485.69352,389.28682 481.83292,388.98986 C 477.97232,388.69289 480.05112,385.42626 475.29972,384.83233 C 470.54822,384.2384 468.17252,385.72323 465.49982,385.1293 C 462.82712,384.53536 458.37262,377.70514 455.10602,377.40818 C 451.83932,377.11121 449.46362,377.11121 447.38482,376.51728 C 445.30612,375.92335 444.41522,376.22031 443.52432,371.76582 C 442.63342,367.31133 447.38482,334.34809 445.00912,334.05112 C 442.63342,333.75415 395.11882,331.08146 395.11882,331.08146 L 395.71272,321.28158 z "
       id="OK" />
    <path
       style="fill:white;fill-opacity:1;fill-rule:evenodd;stroke:black;stroke-width:1px;stroke-linecap:butt;stroke-linejoin:miter;stroke-opacity:1"
       d="M 392.74312,330.78449 L 445.60302,334.34809 C 445.60302,334.34809 444.71212,360.18414 444.11822,362.85684 C 443.52432,365.52953 440.25762,374.14155 445.60302,375.92335 C 450.94842,377.70514 453.32422,377.40818 455.69992,377.70514 C 458.07562,378.00211 463.71802,385.1293 465.49982,385.1293 C 467.28162,385.1293 473.51792,383.05053 475.89362,383.64447 C 478.26932,384.2384 478.26932,387.50503 480.05112,388.39592 C 481.83292,389.28682 486.58442,388.09896 487.77222,388.09896 C 488.96012,388.09896 491.92982,391.95952 494.60252,391.95952 C 497.27512,391.95952 507.66902,392.25648 509.45082,392.25648 C 511.23262,392.25648 512.42042,389.58379 514.79622,389.58379 C 517.17192,389.58379 525.19002,386.31716 529.34752,388.09896 C 533.50502,389.88076 538.55342,397.30491 541.22612,397.30491 C 543.89882,397.30491 547.46242,398.78974 547.46242,398.78974 C 547.46242,398.78974 548.35332,412.15322 548.94732,413.63805 C 549.54122,415.12288 547.75942,426.11062 549.24422,429.08029 C 550.72912,432.04995 551.62002,435.91051 553.40172,439.77107 C 555.18352,443.63163 559.93502,444.52253 558.74712,449.27398 C 557.55932,454.02544 553.99572,474.51611 553.99572,474.51611 C 553.99572,474.51611 540.92922,479.26756 538.85042,481.04936 C 536.77162,482.83116 531.12932,493.81891 526.37782,496.19463 C 521.62642,498.57036 514.49922,504.21272 506.77812,507.77631 C 499.05692,511.33991 487.77222,525.59428 487.47532,528.56394 C 487.17832,531.53361 490.44492,549.35157 490.74192,551.13337 C 491.03892,552.91517 495.19642,556.47876 490.14802,557.07269 C 485.09952,557.66663 468.46942,554.10303 464.01492,550.53944 C 459.56042,546.97584 451.24542,539.84866 449.16662,535.9881 C 447.08792,532.12754 449.76062,523.81249 446.79092,520.54586 C 443.82122,517.27923 436.99102,513.41867 434.02142,508.96418 C 431.05172,504.50969 429.86382,496.19463 426.00332,489.95835 C 422.14272,483.72206 419.76702,477.48577 412.34282,475.11004 C 404.91872,472.73431 398.68242,471.54644 393.63402,473.32824 C 388.58552,475.11004 390.96132,486.09779 384.13102,486.09779 C 377.30082,486.09779 367.20402,482.53419 363.64042,478.37667 C 360.07682,474.21914 355.62232,467.98285 354.13752,464.12229 C 352.65262,460.26173 353.54352,456.9951 352.05872,454.91634 C 350.57392,452.83758 352.65262,449.57095 347.90122,446.89825 C 343.14972,444.22556 339.28922,443.63163 338.39832,440.95893 C 337.50742,438.28624 333.05292,432.34691 330.38022,430.56512 C 327.70752,428.78332 323.84692,424.03186 323.84692,424.03186 L 324.73782,421.65613 L 386.20982,426.11062 L 392.74312,330.78449 z "
       id="TX" />
    <path
       style="fill:white;fill-opacity:1;fill-rule:evenodd;stroke:black;stroke-width:1px;stroke-linecap:butt;stroke-linejoin:miter;stroke-opacity:1"
       d="M 297.41692,309.99686 L 394.52492,320.68764 L 395.41582,330.19056 L 393.04002,330.78449 L 386.20982,426.11062 L 325.33182,421.0622 L 324.14392,424.03186 L 295.04122,421.65613 L 293.85332,428.78332 L 280.78682,426.70456 L 297.41692,309.99686 z "
       id="NM" />
    <path
       style="fill:white;fill-opacity:1;fill-rule:evenodd;stroke:black;stroke-width:1px;stroke-linecap:butt;stroke-linejoin:miter;stroke-opacity:1"
       d="M 297.41692,312.07563 L 281.08382,427.29849 L 240.10252,421.0622 L 183.38192,387.80199 L 182.49102,384.53536 C 182.49102,384.53536 186.94552,382.15964 187.24252,380.97177 C 187.53952,379.78391 186.94552,372.65672 187.53952,369.98402 C 188.13342,367.31133 192.58792,365.23257 193.18182,363.45077 C 193.77582,361.66897 192.88492,359.59021 194.07272,358.69931 C 195.26062,357.80841 201.49692,357.51145 201.19992,352.75999 C 200.90292,348.00853 197.04242,345.6328 195.26062,341.77224 C 193.47882,337.91168 193.47882,333.16022 194.36972,331.08146 C 195.26062,329.0027 195.26062,323.65731 195.55752,321.87551 C 195.85452,320.09371 193.77582,315.04529 198.23022,312.96652 C 202.68472,310.88776 207.13922,317.12405 208.92102,315.93619 C 210.70282,314.74832 213.37552,302.57271 213.37552,300.79091 C 213.37552,299.00912 213.67252,296.63339 213.67252,296.63339 L 297.41692,312.07563 z "
       id="AZ" />
    <path
       style="fill:white;fill-opacity:1;fill-rule:evenodd;stroke:black;stroke-width:1px;stroke-linecap:butt;stroke-linejoin:miter;stroke-opacity:1"
       d="M 139.43092,16.594312 C 139.43092,16.594312 169.12762,26.988127 174.47302,28.472957 C 179.81832,29.957789 219.31482,39.757672 219.31482,39.757672 C 219.31482,39.757672 215.75122,61.4362 213.67252,69.454286 C 211.59372,77.472372 208.32712,100.9327 208.32712,100.9327 C 208.32712,100.9327 194.66662,96.478207 190.80612,95.884277 C 186.94552,95.290347 172.69122,93.508544 167.64272,93.508544 C 162.59432,93.508544 151.60662,95.884277 147.74602,94.993377 C 143.88542,94.102474 144.18242,89.944954 139.43092,89.944954 C 134.67952,89.944954 132.00682,89.944954 126.95842,89.944954 C 121.90992,89.944954 121.61302,85.490454 121.01902,82.817764 C 120.42512,80.145067 123.39482,77.175406 121.31602,75.096643 C 119.23722,73.01788 108.54652,69.15732 108.54652,69.15732 C 108.54652,69.15732 109.73432,45.993961 110.03132,41.836435 C 110.32832,37.678909 110.32832,24.315431 111.81312,23.721499 C 113.29792,23.127567 118.34642,28.769925 121.61302,29.660823 C 124.87962,30.551721 132.30382,30.848688 133.78862,34.709247 C 135.27342,38.569807 134.97652,51.339351 133.19472,51.933284 C 131.41292,52.527216 126.06752,52.527216 126.36442,54.012047 C 126.66142,55.496877 132.00682,59.357437 134.67952,56.981708 C 137.35222,54.605979 140.91582,48.36969 141.50972,44.212164 C 142.10362,40.054638 139.72792,33.224417 140.61882,32.036552 C 141.50972,30.848688 144.18242,32.927451 144.18242,29.660823 C 144.18242,26.394194 139.72792,22.236668 139.72792,22.236668 L 139.43092,16.594312 z "
       id="WA" />
    <path
       style="fill:white;fill-opacity:1;fill-rule:evenodd;stroke:black;stroke-width:1px;stroke-linecap:butt;stroke-linejoin:miter;stroke-opacity:1"
       d="M 107.95252,68.563388 C 107.95252,68.563388 121.61302,73.314846 121.90992,74.799677 C 122.20692,76.284507 120.42512,79.848101 121.31602,82.817764 C 122.20692,85.787424 121.31602,87.866184 124.28572,88.460114 C 127.25532,89.054054 136.75832,87.272254 140.61882,89.054054 C 144.47942,90.835844 141.50972,93.508544 147.44902,94.696404 C 153.38842,95.884277 162.89132,93.508544 170.61242,93.211574 C 178.33352,92.914614 208.62412,101.22967 208.62412,101.22967 C 208.62412,101.22967 210.10892,107.76292 209.21802,110.43562 C 208.32712,113.10831 194.66662,127.65965 194.66662,131.22325 C 194.66662,134.78684 201.19992,133.89594 197.63632,141.91403 C 194.07272,149.93211 191.40002,168.04705 191.10312,170.71974 C 190.80612,173.39244 189.32132,182.59839 189.32132,182.59839 C 189.32132,182.59839 151.60662,174.5803 144.18242,172.79851 C 136.75832,171.01671 108.84342,162.99862 102.01322,161.21683 C 95.183019,159.43503 77.662019,154.08964 77.662019,154.08964 C 77.662019,154.08964 78.255919,143.39886 78.552919,141.91403 C 78.849819,140.4292 77.959019,135.08381 77.959019,135.08381 C 77.959019,135.08381 89.243719,118.75067 91.322419,114.89011 C 93.401219,111.02955 103.79502,85.193494 104.38892,83.411694 C 104.98292,81.629894 109.43742,67.969455 109.43742,67.969455 L 107.95252,68.563388 z "
       id="OR" />
    <path
       style="fill:white;fill-opacity:1;fill-rule:evenodd;stroke:black;stroke-width:1px;stroke-linecap:butt;stroke-linejoin:miter;stroke-opacity:1"
       d="M 143.58852,172.79851 L 233.56922,193.28917 C 233.56922,193.28917 213.96942,294.85159 213.67252,296.93035 C 213.37552,299.00912 211.29682,317.42102 209.81192,317.42102 C 208.32712,317.42102 203.27872,309.6999 198.82422,312.37259 C 194.36972,315.04529 196.44842,325.4391 196.15152,327.81483 C 195.85452,330.19056 193.18182,332.26932 193.18182,332.26932 L 127.25532,233.97353 L 143.58852,172.79851 z "
       id="NV" />
    <path
       style="fill:white;fill-opacity:1;fill-rule:evenodd;stroke:black;stroke-width:1px;stroke-linecap:butt;stroke-linejoin:miter;stroke-opacity:1"
       d="M 77.068119,164.18649 L 76.771119,153.49571 L 144.77632,174.5803 L 126.66142,235.1614 L 194.07272,333.75415 C 194.07272,333.75415 194.36972,340.58438 195.55752,342.36617 C 196.74542,344.14797 204.46652,349.79033 201.79382,353.35392 C 199.12112,356.91751 195.85452,358.10538 194.66662,359.59021 C 193.47882,361.07504 197.93332,362.85684 193.47882,364.63863 C 189.02432,366.42043 188.13342,365.23257 187.53952,368.20223 C 186.94552,371.17189 189.61822,381.26874 187.53952,382.75357 C 185.46072,384.2384 182.49102,384.83233 182.49102,384.83233 L 143.58852,377.11121 L 140.02492,374.43852 L 141.21272,362.2629 C 141.21272,362.2629 134.38252,353.65089 132.60072,351.86909 C 130.81892,350.08729 126.66142,347.71156 126.66142,347.71156 L 126.66142,344.14797 C 126.66142,344.14797 121.01902,343.851 116.56462,339.99044 C 112.11012,336.12988 114.18882,332.56629 108.24952,330.48753 C 102.31022,328.40876 95.183019,327.81483 94.886019,325.14214 C 94.589119,322.46944 93.401219,315.34225 93.698219,310.29383 C 93.995119,305.2454 81.522519,282.08205 82.710419,280.00328 C 83.898319,277.92452 85.086119,272.57913 85.383119,269.90643 C 85.680119,267.23374 80.631619,264.26408 79.740719,261.59138 C 78.849819,258.91869 79.740719,249.41577 79.740719,249.41577 L 84.789219,252.38543 C 84.789219,252.38543 83.601319,249.41577 84.789219,247.93094 C 85.977019,246.44611 88.352819,241.99162 88.352819,241.99162 C 88.352819,241.99162 83.601319,244.07038 79.146819,243.17948 C 74.692319,242.28858 73.207519,231.89477 72.910519,230.7069 C 72.613619,229.51904 67.862119,217.64039 67.862119,217.64039 C 67.862119,217.64039 68.456019,201.90119 68.753019,198.93153 C 69.050019,195.96186 65.189419,186.75591 65.189419,184.97412 C 65.189419,183.19232 69.050019,180.81659 70.237819,178.73783 C 71.425719,176.65907 69.643919,175.17423 70.831819,173.09547 C 72.019619,171.01671 77.068119,168.34401 77.365019,166.85918 C 77.662019,165.37435 77.068119,154.98054 77.068119,154.98054 L 77.068119,164.18649 z "
       id="CA" />
    <path
       style="fill:white;fill-opacity:1;fill-rule:evenodd;stroke:black;stroke-width:1px;stroke-linecap:butt;stroke-linejoin:miter;stroke-opacity:1"
       d="M 275.14452,220.90702 L 384.72502,233.08263 L 394.22792,150.22908 L 287.91402,136.27167 L 275.14452,220.90702 z "
       id="WY" />
    <path
       style="fill:white;fill-opacity:1;fill-rule:evenodd;stroke:black;stroke-width:1px;stroke-linecap:butt;stroke-linejoin:miter;stroke-opacity:1"
       d="M 278.70812,200.11939 L 274.84752,220.90702 L 307.51382,224.47061 L 297.41692,311.77866 L 213.96942,296.63339 L 233.86622,192.69524 C 233.86622,192.69524 242.18122,192.9922 243.36912,192.9922 C 244.55702,192.9922 253.16902,195.96186 258.51442,196.85276 C 263.85982,197.74366 264.15672,198.93153 267.42342,199.22849 C 270.69002,199.52546 278.41112,199.52546 278.70812,200.11939 z "
       id="UT" />
    <path
       style="fill:white;fill-opacity:1;fill-rule:evenodd;stroke:black;stroke-width:1px;stroke-linecap:butt;stroke-linejoin:miter;stroke-opacity:1"
       d="M 307.81072,224.47061 L 415.60952,237.24016 C 415.60952,237.24016 417.09432,268.4216 416.79732,271.0943 C 416.50042,273.76699 416.20342,274.36093 416.20342,274.36093 C 416.20342,274.36093 414.42162,287.7244 414.12462,292.47586 C 413.82772,297.22732 412.63982,318.60888 412.63982,318.60888 C 412.63982,318.60888 398.68242,322.46944 395.11882,320.98461 C 391.55522,319.49978 297.71392,310.29383 297.71392,310.29383 L 307.81072,224.47061 z "
       id="CO" />
    <path
       style="fill:white;fill-opacity:1;fill-rule:evenodd;stroke:black;stroke-width:1px;stroke-linecap:butt;stroke-linejoin:miter;stroke-opacity:1"
       d="M 219.90882,38.866774 L 230.30262,41.242503 C 230.30262,41.242503 229.70872,53.715081 229.70872,59.357437 C 229.70872,64.999794 231.49052,74.799677 234.46012,77.175406 C 237.42982,79.551135 238.02372,84.302594 240.10252,87.272254 C 242.18122,90.241914 246.04182,92.617644 245.44792,96.478207 C 244.85392,100.33877 246.93272,104.79326 244.26002,108.95079 C 241.58732,113.10831 237.42982,115.78101 240.69642,116.96887 C 243.96302,118.15674 250.49632,118.4537 250.49632,118.4537 C 250.49632,118.4537 251.09022,126.76875 253.16902,130.33235 C 255.24772,133.89594 256.73262,140.13223 260.59312,141.61706 C 264.45372,143.10189 273.06572,144.58672 276.92632,143.99279 C 280.78682,143.39886 282.56862,141.91403 284.35042,142.50796 C 286.13222,143.10189 287.02312,146.07155 287.02312,146.07155 L 278.11412,199.82242 C 278.11412,199.82242 267.42342,200.11939 264.15672,198.33759 C 260.89012,196.5558 249.01152,194.774 243.07212,193.28917 C 237.13282,191.80434 233.56922,193.8831 233.56922,193.8831 L 190.50912,182.00446 C 190.50912,182.00446 192.29092,158.54413 193.47882,155.2775 C 194.66662,152.01088 199.41812,140.13223 198.82422,137.16257 C 198.23022,134.19291 196.44842,135.08381 195.26062,132.41111 C 194.07272,129.73841 209.51502,112.51438 209.81192,109.54472 C 210.10892,106.57506 207.73322,103.30843 208.32712,100.9327 C 208.92102,98.556967 220.50272,38.569807 219.90882,38.866774 z "
       id="ID" />
    <path
       style="fill:white;fill-opacity:1;fill-rule:evenodd;stroke:black;stroke-width:1px;stroke-linecap:butt;stroke-linejoin:miter;stroke-opacity:1"
       d="M 231.19352,42.430367 C 231.19352,42.430367 277.52022,50.448453 286.42922,51.636318 C 295.33822,52.824182 328.30142,57.57564 333.94382,58.763505 C 339.58612,59.95137 364.82822,63.514963 373.44032,63.811929 C 382.05232,64.108896 399.57332,65.29676 399.57332,65.29676 C 399.57332,65.29676 398.97942,93.805514 397.49452,102.41753 C 396.00972,111.02955 394.52492,150.22908 394.52492,150.22908 L 289.10192,135.9747 L 286.72622,144.88369 C 286.72622,144.88369 285.83532,142.80493 283.45952,142.80493 C 281.08382,142.80493 278.11412,143.99279 273.06572,143.99279 C 268.01732,143.99279 261.78102,145.18065 259.10832,141.02313 C 256.43562,136.8656 250.79332,118.15674 250.79332,118.15674 C 250.79332,118.15674 240.39942,118.4537 239.80552,116.07797 C 239.21162,113.70224 244.55702,109.54472 245.15092,107.46595 C 245.74482,105.38719 244.85392,102.7145 244.85392,100.0418 C 244.85392,97.369107 246.63572,97.666077 246.04182,94.696404 C 245.44792,91.726744 241.58732,89.351014 239.80552,87.272254 C 238.02372,85.193494 238.91462,83.708664 236.83582,80.739 C 234.75712,77.769338 232.67832,75.987541 231.19352,71.830015 C 229.70872,67.672489 232.08442,42.727333 231.19352,42.430367 z "
       id="MT" />
    <g
       id="HI"
       transform="translate(-2.815781,3.144444)"
       style="fill:white;fill-opacity:1">
      <path
         id="path13571"
         d="M 30.238095,463.65079 C 30.238095,463.65079 30.238095,460.71098 34.017857,460.29101 C 37.797619,459.87103 39.05754,461.55093 39.05754,461.55093 L 36.957672,465.75066 L 30.238095,463.65079 z "
         style="fill:white;fill-opacity:1;fill-rule:evenodd;stroke:black;stroke-width:1px;stroke-linecap:butt;stroke-linejoin:miter;stroke-opacity:1" />
      <path
         id="path13573"
         d="M 63.416005,472.05026 C 65.0959,471.63029 64.675926,474.15013 67.615741,475.41005 C 70.555556,476.66997 71.815476,475.83003 71.815476,477.50992 C 71.815476,479.18981 70.975529,480.02976 70.975529,480.02976 C 70.975529,480.02976 65.515873,478.76984 63.835979,478.34987 C 62.156085,477.92989 63.416005,472.89021 63.416005,472.05026 z "
         style="fill:white;fill-opacity:1;fill-rule:evenodd;stroke:black;stroke-width:1px;stroke-linecap:butt;stroke-linejoin:miter;stroke-opacity:1" />
      <path
         id="path13575"
         d="M 81.474868,485.90939 L 81.054894,480.86971 L 88.194445,481.28968 L 81.474868,485.90939 z "
         style="fill:white;fill-opacity:1;fill-rule:evenodd;stroke:black;stroke-width:1px;stroke-linecap:butt;stroke-linejoin:miter;stroke-opacity:1" />
      <path
         id="path13577"
         d="M 91.554233,488.42923 C 92.39418,486.32936 97.433863,485.90939 99.953704,488.42923 C 102.47355,490.94907 105.41336,493.46892 105.41336,493.46892 L 94.074074,493.46892 L 91.554233,488.42923 z "
         style="fill:white;fill-opacity:1;fill-rule:evenodd;stroke:black;stroke-width:1px;stroke-linecap:butt;stroke-linejoin:miter;stroke-opacity:1" />
      <path
         id="path13579"
         d="M 118.43254,505.64815 C 118.43254,505.64815 128.5119,514.46759 127.25198,517.82738 C 125.99206,521.18717 119.27249,522.86706 118.43254,524.54696 C 117.59259,526.22685 117.59259,529.58664 113.39286,529.16667 C 109.19312,528.74669 107.51323,530.00661 107.51323,526.64683 C 107.51323,523.28704 108.77315,520.7672 107.09325,519.50728 C 105.41336,518.24735 104.15344,518.24735 104.15344,515.72751 C 104.15344,513.20767 107.51323,514.04762 107.9332,511.52778 C 108.35317,509.00794 103.31349,505.22817 105.41336,503.12831 C 107.51323,501.02844 116.75265,504.8082 118.43254,505.64815 z "
         style="fill:white;fill-opacity:1;fill-rule:evenodd;stroke:black;stroke-width:1px;stroke-linecap:butt;stroke-linejoin:miter;stroke-opacity:1" />
    </g>
    <g
       id="AK"
       transform="translate(-2.815781,3.144444)"
       style="fill:white;fill-opacity:1">
      <path
         id="path13588"
         d="M 299.02116,481.70966 L 304.48082,563.18452 C 304.48082,563.18452 305.32077,567.38426 308.26058,567.38426 C 311.2004,567.38426 313.72024,567.38426 313.72024,567.38426 C 313.72024,567.38426 316.24008,572.42394 319.17989,573.26389 C 322.11971,574.10384 321.27976,575.36376 323.37963,575.36376 C 325.4795,575.36376 324.63955,572.00397 328.41931,572.00397 C 332.19907,572.00397 331.7791,574.52381 334.71892,575.78373 C 337.65873,577.04365 338.91865,574.10384 341.01852,577.04365 C 343.11839,579.98347 343.11839,582.50331 346.47817,586.28307 C 349.83796,590.06283 349.83796,593.84259 353.19775,594.68254 C 356.55754,595.52249 363.27712,594.68254 363.69709,598.88228 C 364.11706,603.08201 364.11706,609.80159 362.43717,609.80159 C 360.75728,609.80159 355.71759,610.64153 355.71759,610.64153 C 355.71759,610.64153 352.3578,615.68122 349.83796,611.90146 C 347.31812,608.12169 346.89815,603.50198 344.37831,602.24206 C 341.85847,600.98214 340.17857,603.92196 338.49868,600.56217 C 336.81878,597.20238 327.15939,586.28307 327.15939,586.28307 L 316.24008,577.8836 C 316.24008,577.8836 313.72024,573.68386 310.36045,573.26389 C 307.00066,572.84392 296.08135,570.74405 292.30159,569.06415 C 288.52183,567.38426 283.90212,567.38426 282.22222,565.70437 C 280.54233,564.02447 279.28241,561.08466 276.34259,561.50463 C 273.40278,561.9246 273.82275,567.80423 271.72288,569.48413 C 269.62302,571.16402 262.06349,570.74405 260.3836,573.26389 C 258.7037,575.78373 254.50397,576.2037 254.50397,576.2037 L 253.66402,571.16402 L 260.3836,562.34458 L 262.48347,560.24471 C 262.48347,560.24471 253.24405,557.30489 252.4041,562.34458 C 251.56415,567.38426 251.56415,567.38426 251.56415,567.38426 L 250.30423,566.96429 C 250.30423,566.96429 244.84458,573.68386 244.4246,575.78373 C 244.00463,577.8836 246.94444,579.56349 243.58466,581.66336 C 240.22487,583.76323 232.66534,586.28307 229.30556,590.06283 C 225.94577,593.84259 220.48611,599.72222 217.5463,599.72222 C 214.60648,599.72222 202.84722,602.66204 199.90741,603.08201 C 196.96759,603.50198 205.78704,598.88228 207.8869,596.78241 C 209.98677,594.68254 214.18651,592.1627 217.12632,590.4828 C 220.06614,588.80291 223.00595,587.12302 225.10582,584.60317 C 227.20569,582.08333 232.24537,577.8836 228.04564,577.04365 C 223.8459,576.2037 221.32606,575.36376 217.96627,575.36376 C 214.60648,575.36376 216.70635,572.00397 214.18651,572.00397 C 211.66667,572.00397 207.46693,572.00397 207.46693,572.00397 C 207.46693,572.00397 208.30688,565.28439 206.20701,563.18452 C 204.10714,561.08466 201.5873,561.9246 199.48743,560.24471 C 197.38757,558.56481 195.70767,553.52513 195.70767,551.84524 C 195.70767,550.16534 191.08796,548.06548 192.34788,544.28571 C 193.6078,540.50595 194.86773,538.82606 197.38757,537.56614 C 199.90741,536.30622 200.74735,532.10648 204.10714,531.26653 C 207.46693,530.42659 217.96627,532.10648 218.38624,530.00661 C 218.80622,527.90675 219.22619,526.64683 220.48611,524.96693 C 221.74603,523.28704 225.52579,520.34722 224.68585,518.66733 C 223.8459,516.98743 220.48611,518.24735 217.5463,518.24735 C 214.60648,518.24735 200.32738,516.14749 200.32738,516.14749 C 200.32738,516.14749 197.80754,506.4881 199.90741,504.38823 C 202.00728,502.28836 212.92659,498.92857 215.02646,500.18849 C 217.12632,501.44841 217.12632,503.96825 217.12632,503.96825 L 224.26587,504.8082 C 224.26587,504.8082 217.96627,496.40873 217.5463,494.30886 C 217.12632,492.20899 216.28638,485.48942 214.18651,483.80952 C 212.08664,482.12963 211.24669,477.92989 215.02646,477.50992 C 218.80622,477.08995 225.10582,479.60979 225.94577,477.50992 C 226.78571,475.41005 227.62566,473.31019 229.72553,470.37037 C 231.8254,467.43056 231.8254,471.63029 233.50529,470.37037 C 235.18519,469.11045 236.44511,467.85053 238.54497,466.59061 C 240.64484,465.33069 246.1045,463.65079 249.46429,463.65079 C 252.82407,463.65079 258.7037,467.85053 260.80357,469.11045 C 262.90344,470.37037 264.58333,472.47024 264.58333,472.47024 C 264.58333,472.47024 267.52315,470.37037 270.04299,471.21032 C 272.56283,472.05026 271.30291,474.99008 275.08267,476.25 C 278.86243,477.50992 284.32209,478.34987 286.00198,477.50992 C 287.68188,476.66997 289.78175,474.99008 292.30159,475.83003 C 294.82143,476.66997 298.60119,480.86971 299.02116,481.70966 z "
         style="fill:white;fill-opacity:1;fill-rule:evenodd;stroke:black;stroke-width:1px;stroke-linecap:butt;stroke-linejoin:miter;stroke-opacity:1" />
      <path
         id="path13590"
         d="M 153.29034,614.4213 L 168.40939,615.26124 L 171.76918,610.64153 C 171.76918,610.64153 168.40939,611.48148 165.0496,611.90146 C 161.68981,612.32143 162.94974,609.38161 159.58995,609.38161 C 156.23016,609.38161 153.71032,614.00132 153.29034,614.4213 z "
         style="fill:white;fill-opacity:1;fill-rule:evenodd;stroke:black;stroke-width:1px;stroke-linecap:butt;stroke-linejoin:miter;stroke-opacity:1" />
      <path
         id="path13592"
         d="M 178.48876,514.88757 C 178.48876,514.88757 181.42857,512.36772 181.84855,514.04762 C 182.26852,515.72751 186.88823,519.50728 186.04828,521.18717 C 185.20833,522.86706 179.74868,521.18717 179.74868,521.18717 C 179.74868,521.18717 175.54894,516.56746 178.48876,514.88757 z "
         style="fill:white;fill-opacity:1;fill-rule:evenodd;stroke:black;stroke-width:1px;stroke-linecap:butt;stroke-linejoin:miter;stroke-opacity:1" />
      <path
         id="path13594"
         d="M 251.14418,585.8631 L 248.62434,590.06283 L 249.04431,593.42262 C 249.04431,593.42262 241.90476,598.04233 239.80489,598.04233 C 237.70503,598.04233 236.44511,593.42262 238.125,591.32275 C 239.80489,589.22288 243.58466,587.12302 245.26455,585.8631 C 246.94444,584.60317 250.72421,585.02315 251.14418,585.8631 z "
         style="fill:white;fill-opacity:1;fill-rule:evenodd;stroke:black;stroke-width:1px;stroke-linecap:butt;stroke-linejoin:miter;stroke-opacity:1" />
      <path
         id="path13596"
         d="M 190.24802,558.14484 L 186.04828,556.46495 L 186.04828,554.36508 L 191.08796,553.52513 C 191.08796,553.52513 188.9881,554.36508 190.24802,558.14484 z "
         style="fill:white;fill-opacity:1;fill-rule:evenodd;stroke:black;stroke-width:1px;stroke-linecap:butt;stroke-linejoin:miter;stroke-opacity:1" />
    </g>
  </g>
</svg>
